<?xml version="1.0" standalone="no"?>
<!DOCTYPE svg PUBLIC "-//W3C//DTD SVG 20010904//EN"
 "http://www.w3.org/TR/2001/REC-SVG-20010904/DTD/svg10.dtd">
<svg version="1.0" xmlns="http://www.w3.org/2000/svg"
 width="1543.000000pt" height="1543.000000pt" viewBox="0 0 1543.000000 1543.000000"
 preserveAspectRatio="xMidYMid meet">
<metadata>
Created by potrace 1.11, written by Peter Selinger 2001-2013
</metadata>
<g transform="translate(0.000000,1543.000000) scale(0.100000,-0.100000)"
fill="#000000" stroke="none">
<path d="M5800 14885 c0 -8 -4 -15 -10 -15 -5 0 -10 -11 -10 -25 0 -16 -6 -25
-15 -25 -9 0 -15 -9 -15 -25 0 -14 -4 -25 -10 -25 -5 0 -10 -11 -10 -25 0 -16
-6 -25 -15 -25 -8 0 -15 -7 -15 -15 0 -8 -4 -15 -10 -15 -5 0 -10 -8 -10 -19
0 -10 -13 -28 -30 -41 -16 -13 -30 -32 -30 -42 0 -21 -22 -48 -39 -48 -6 0
-11 -11 -11 -25 0 -14 -4 -25 -10 -25 -5 0 -10 -7 -10 -15 0 -8 -7 -15 -15
-15 -9 0 -15 -9 -15 -21 0 -22 -22 -49 -39 -49 -6 0 -11 -7 -11 -15 0 -8 -7
-15 -15 -15 -9 0 -15 -9 -15 -25 0 -20 -5 -25 -25 -25 -14 0 -25 -5 -25 -11 0
-14 -25 -39 -39 -39 -6 0 -11 -5 -11 -11 0 -14 -25 -39 -39 -39 -6 0 -11 -7
-11 -15 0 -8 -7 -15 -15 -15 -9 0 -15 -9 -15 -25 0 -14 -4 -25 -10 -25 -5 0
-10 -7 -10 -15 0 -8 -5 -15 -11 -15 -14 0 -39 -25 -39 -39 0 -6 -11 -11 -25
-11 -14 0 -25 -4 -25 -10 0 -5 -7 -10 -15 -10 -8 0 -15 -7 -15 -15 0 -9 -9
-15 -24 -15 -13 0 -26 -7 -30 -15 -3 -9 -19 -15 -41 -15 -19 0 -35 -4 -35 -10
0 -5 -14 -10 -30 -10 -20 0 -39 -9 -54 -25 -13 -14 -28 -25 -35 -25 -6 0 -11
-5 -11 -11 0 -19 -28 -39 -54 -39 -23 0 -26 4 -26 35 0 19 -4 35 -10 35 -5 0
-10 7 -10 15 0 11 -12 15 -50 15 -38 0 -50 -4 -50 -15 0 -8 -7 -15 -15 -15 -8
0 -15 -4 -15 -10 0 -5 -16 -10 -35 -10 -31 0 -35 -3 -35 -25 0 -22 -4 -25 -40
-25 -29 0 -40 -4 -40 -15 0 -9 -9 -15 -25 -15 -14 0 -25 -4 -25 -10 0 -5 -18
-10 -40 -10 -29 0 -40 -4 -40 -15 0 -8 -7 -15 -15 -15 -8 0 -15 -7 -15 -15 0
-8 -9 -15 -21 -15 -11 0 -41 -22 -68 -50 -51 -53 -61 -59 -61 -35 0 11 -11 15
-40 15 -29 0 -40 -4 -40 -15 0 -9 -9 -15 -25 -15 -14 0 -25 -4 -25 -10 0 -5
-11 -10 -25 -10 -14 0 -25 5 -25 10 0 6 -11 10 -25 10 -20 0 -25 5 -25 26 0
26 20 54 39 54 6 0 11 11 11 25 0 14 5 25 10 25 6 0 10 53 10 140 0 87 -4 140
-10 140 -5 0 -10 7 -10 15 0 8 -7 15 -15 15 -8 0 -15 5 -15 10 0 6 -31 10 -73
10 -65 0 -74 -2 -91 -25 -10 -14 -27 -25 -38 -25 -21 0 -48 -22 -48 -39 0 -6
-11 -11 -25 -11 -14 0 -25 -4 -25 -10 0 -5 -11 -10 -25 -10 -16 0 -25 -6 -25
-15 0 -8 -7 -15 -15 -15 -8 0 -15 -7 -15 -15 0 -8 -5 -15 -11 -15 -17 0 -39
-27 -39 -49 0 -12 -6 -21 -15 -21 -9 0 -15 -9 -15 -25 0 -14 -4 -25 -10 -25
-5 0 -10 -18 -10 -40 0 -29 -4 -40 -15 -40 -11 0 -15 -11 -15 -40 0 -29 -4
-40 -15 -40 -9 0 -15 9 -15 25 0 14 -4 25 -10 25 -5 0 -10 11 -10 25 0 22 -4
25 -35 25 -28 0 -44 -9 -75 -40 -22 -22 -40 -49 -40 -60 0 -11 -7 -20 -15 -20
-8 0 -15 -7 -15 -15 0 -8 -7 -15 -15 -15 -9 0 -15 -9 -15 -25 0 -14 -4 -25
-10 -25 -5 0 -10 -11 -10 -25 0 -16 -6 -25 -15 -25 -11 0 -15 -11 -15 -40 0
-22 -4 -40 -10 -40 -6 0 -10 -32 -10 -75 0 -43 4 -75 10 -75 6 0 10 -11 10
-25 0 -14 -4 -25 -10 -25 -5 0 -10 5 -10 10 0 6 -18 10 -40 10 -36 0 -40 -2
-40 -25 0 -14 -4 -25 -10 -25 -6 0 -10 -27 -10 -60 0 -45 -4 -62 -15 -66 -11
-4 -15 -21 -15 -55 0 -46 -2 -49 -25 -49 -16 0 -25 -6 -25 -15 0 -8 -7 -15
-15 -15 -8 0 -15 -4 -15 -10 0 -5 -11 -10 -25 -10 -16 0 -25 -6 -25 -15 0 -11
-11 -15 -40 -15 -29 0 -40 4 -40 15 0 8 -4 15 -10 15 -5 0 -10 16 -10 35 0 24
-5 35 -15 35 -10 0 -15 10 -15 30 0 20 -5 30 -15 30 -9 0 -15 9 -15 21 0 22
-22 49 -39 49 -6 0 -11 7 -11 15 0 12 -13 15 -60 15 -47 0 -60 -3 -60 -15 0
-9 -9 -15 -25 -15 -14 0 -25 -4 -25 -10 0 -5 -7 -10 -15 -10 -8 0 -15 -7 -15
-15 0 -9 -9 -15 -21 -15 -12 0 -32 -11 -45 -25 -13 -14 -32 -25 -44 -25 -11 0
-20 -7 -20 -15 0 -9 -9 -15 -25 -15 -22 0 -25 -4 -25 -35 0 -19 -4 -35 -10
-35 -6 0 -10 -39 -10 -96 l0 -97 -36 -33 c-23 -22 -45 -34 -64 -34 -15 0 -30
-7 -34 -15 -3 -8 -15 -15 -26 -15 -11 0 -20 -4 -20 -10 0 -5 -18 -10 -40 -10
-29 0 -40 -4 -40 -15 0 -12 -14 -15 -65 -15 -37 0 -65 -4 -65 -10 0 -6 -28
-10 -65 -10 -51 0 -65 -3 -65 -15 0 -11 -11 -15 -36 -15 -35 0 -64 -18 -64
-39 0 -6 -7 -11 -15 -11 -9 0 -15 -9 -15 -25 0 -14 -4 -25 -10 -25 -5 0 -10
-11 -10 -25 0 -16 -6 -25 -15 -25 -22 0 -22 -195 0 -204 12 -4 15 -26 15 -106
0 -60 4 -100 10 -100 6 0 10 -97 10 -270 0 -233 -2 -270 -15 -270 -12 0 -15
18 -15 100 0 60 -4 100 -10 100 -5 0 -10 18 -10 40 0 29 -4 40 -15 40 -9 0
-15 9 -15 25 0 14 -4 25 -10 25 -5 0 -10 7 -10 15 0 8 -7 15 -15 15 -8 0 -15
5 -15 10 0 6 -11 10 -25 10 -14 0 -25 -4 -25 -10 0 -5 -11 -10 -25 -10 -16 0
-25 -6 -25 -15 0 -9 -9 -15 -25 -15 -19 0 -25 -5 -25 -21 0 -22 -22 -49 -39
-49 -6 0 -11 -13 -11 -30 0 -20 -5 -30 -15 -30 -9 0 -15 -9 -15 -21 0 -26 -23
-49 -49 -49 -16 0 -21 -6 -21 -25 0 -16 -6 -25 -15 -25 -20 0 -20 -46 0 -54
11 -4 15 -21 15 -66 0 -33 4 -60 10 -60 6 0 10 -11 10 -25 0 -20 -5 -25 -25
-25 -14 0 -25 -5 -25 -11 0 -7 -11 -22 -25 -35 -18 -16 -25 -34 -25 -59 0 -19
-4 -35 -10 -35 -5 0 -10 -7 -10 -15 0 -22 -27 -18 -33 5 -3 14 -14 20 -31 20
-14 0 -26 5 -26 10 0 6 -21 10 -46 10 -44 0 -74 -16 -74 -39 0 -6 -7 -11 -15
-11 -11 0 -15 -12 -15 -50 0 -27 -4 -50 -10 -50 -5 0 -10 -18 -10 -40 0 -22
-5 -40 -11 -40 -26 0 -39 -30 -39 -89 0 -34 4 -61 10 -61 6 0 10 -11 10 -25 0
-16 6 -25 15 -25 9 0 15 -9 15 -25 0 -14 5 -25 10 -25 6 0 10 -7 10 -15 0 -9
-9 -15 -25 -15 -14 0 -25 -5 -25 -11 0 -14 -25 -39 -39 -39 -6 0 -11 -7 -11
-15 0 -8 7 -15 15 -15 22 0 22 -118 0 -126 -22 -9 -22 -204 0 -204 9 0 15 -9
15 -25 0 -14 5 -25 10 -25 6 0 10 -7 10 -15 0 -8 -4 -15 -10 -15 -5 0 -10 -11
-10 -25 0 -16 -6 -25 -15 -25 -21 0 -21 -66 0 -74 8 -3 15 -17 15 -31 0 -14 5
-25 10 -25 6 0 10 -11 10 -25 0 -16 6 -25 15 -25 9 0 15 -9 15 -25 0 -20 -5
-25 -24 -25 -13 0 -26 -7 -30 -15 -3 -8 -17 -15 -31 -15 -14 0 -25 -4 -25 -10
0 -5 -11 -10 -25 -10 -14 0 -25 -5 -25 -11 0 -17 -27 -39 -48 -39 -11 0 -22
-7 -26 -15 -3 -8 -15 -15 -26 -15 -27 0 -50 -23 -50 -50 0 -11 -7 -23 -15 -26
-8 -4 -15 -17 -15 -30 0 -13 -4 -24 -10 -24 -5 0 -10 -11 -10 -25 0 -16 -6
-25 -15 -25 -9 0 -15 -9 -15 -25 0 -14 -4 -25 -10 -25 -5 0 -10 -22 -10 -50 0
-38 -4 -50 -15 -50 -20 0 -20 -46 0 -54 13 -4 15 -36 15 -196 0 -120 4 -190
10 -190 7 0 10 -168 10 -485 0 -317 -3 -485 -10 -485 -5 0 -10 -7 -10 -15 0
-8 -7 -15 -15 -15 -9 0 -15 -9 -15 -25 0 -16 -6 -25 -15 -25 -9 0 -15 -9 -15
-25 0 -14 -4 -25 -10 -25 -5 0 -10 -21 -10 -46 0 -37 5 -52 25 -70 14 -13 25
-32 25 -44 0 -11 7 -20 15 -20 8 0 15 -7 15 -15 0 -8 9 -15 21 -15 11 0 41
-22 68 -50 28 -30 57 -50 70 -50 11 0 21 -4 21 -10 0 -5 8 -10 19 -10 10 0 27
-11 37 -25 10 -14 29 -25 41 -25 14 0 23 -6 23 -15 0 -9 9 -15 24 -15 13 0 31
-11 42 -25 10 -14 29 -25 41 -25 22 0 23 -3 23 -105 0 -68 4 -105 11 -105 14
0 39 -25 39 -39 0 -6 14 -11 30 -11 17 0 30 -4 30 -10 0 -5 8 -10 19 -10 10 0
28 -13 41 -30 13 -16 31 -30 41 -30 11 0 19 -4 19 -10 0 -5 23 -10 50 -10 28
0 50 5 50 10 0 6 7 10 15 10 8 0 15 -4 15 -10 0 -5 7 -10 15 -10 8 0 15 -5 15
-11 0 -16 26 -39 45 -39 9 0 26 -11 39 -25 13 -14 33 -25 45 -25 12 0 21 -6
21 -15 0 -8 7 -15 15 -15 8 0 15 -4 15 -10 0 -5 7 -10 15 -10 9 0 15 -9 15
-21 0 -19 -4 -21 -31 -15 -17 3 -49 6 -70 6 -33 0 -39 3 -39 21 0 26 -23 49
-49 49 -12 0 -21 6 -21 15 0 11 -11 15 -40 15 -29 0 -40 4 -40 15 0 8 -7 15
-15 15 -8 0 -15 5 -15 10 0 6 -47 10 -120 10 l-120 0 -75 75 c-60 60 -81 75
-105 75 -18 0 -33 6 -36 15 -9 22 -100 21 -108 -2 -6 -14 -9 -14 -26 5 -11 12
-20 30 -20 42 0 11 -7 20 -15 20 -11 0 -15 11 -15 35 0 27 -8 43 -30 65 -30
30 -32 30 -140 30 -91 0 -110 -3 -110 -15 0 -8 -4 -15 -10 -15 -5 0 -10 -8
-10 -18 0 -27 -36 -52 -75 -52 -24 0 -35 -5 -35 -15 0 -8 -4 -15 -10 -15 -5 0
-10 -11 -10 -25 0 -16 -6 -25 -15 -25 -11 0 -15 -12 -15 -50 0 -38 4 -50 15
-50 9 0 15 -9 15 -25 0 -14 5 -25 10 -25 6 0 10 -7 10 -15 0 -8 5 -15 11 -15
14 0 39 -25 39 -39 0 -6 14 -11 30 -11 17 0 30 -4 30 -9 0 -5 10 -11 22 -13
25 -4 37 -28 14 -28 -9 0 -16 -7 -16 -15 0 -8 -4 -15 -10 -15 -5 0 -10 -9 -10
-20 0 -10 -8 -24 -18 -30 -16 -10 -16 -10 0 -20 12 -7 18 -23 18 -45 0 -19 5
-35 10 -35 6 0 10 -11 10 -25 0 -16 6 -25 15 -25 9 0 15 -9 15 -25 0 -14 5
-25 10 -25 6 0 10 -28 10 -65 0 -51 3 -65 15 -65 8 0 15 -5 15 -11 0 -30 30
-39 129 -39 l101 0 0 -65 0 -65 130 0 c109 0 130 -2 130 -15 0 -12 13 -15 60
-15 47 0 60 3 60 15 0 11 12 15 49 15 34 0 51 4 55 15 3 8 17 15 31 15 14 0
25 5 25 10 0 6 11 10 25 10 16 0 25 6 25 15 0 8 5 15 10 15 6 0 13 -7 16 -15
4 -9 19 -15 40 -15 24 0 34 5 34 15 0 11 11 15 40 15 22 0 40 5 40 10 0 6 16
10 35 10 24 0 35 5 35 15 0 13 20 15 120 15 79 0 120 -4 120 -11 0 -14 25 -39
39 -39 6 0 11 -7 11 -15 0 -8 5 -15 10 -15 6 0 10 -27 10 -60 0 -45 4 -62 15
-66 8 -4 15 -17 15 -30 0 -15 6 -24 15 -24 9 0 15 -9 15 -25 0 -14 5 -25 10
-25 6 0 10 -11 10 -25 0 -16 6 -25 15 -25 9 0 15 -9 15 -25 0 -14 5 -25 10
-25 6 0 10 -11 10 -25 0 -16 6 -25 15 -25 11 0 15 -13 15 -54 0 -30 4 -56 9
-58 5 -1 12 -20 16 -40 6 -31 4 -38 -9 -38 -10 0 -16 8 -16 21 0 12 -20 40
-45 65 -36 35 -53 44 -80 44 -19 0 -35 -4 -35 -10 0 -16 -38 -12 -60 7 -12 11
-20 30 -20 50 0 27 -4 33 -21 33 -22 0 -49 22 -49 39 0 6 -11 11 -24 11 -13 0
-26 7 -30 15 -4 10 -20 15 -51 15 -45 0 -75 16 -75 39 0 6 -11 11 -25 11 -16
0 -25 -6 -25 -15 0 -8 -7 -15 -15 -15 -9 0 -15 -9 -15 -25 0 -14 -3 -25 -8
-25 -14 0 -42 40 -42 60 0 11 -7 20 -15 20 -9 0 -15 9 -15 25 0 20 -5 25 -25
25 -14 0 -25 5 -25 10 0 6 -32 10 -75 10 -43 0 -75 -4 -75 -10 0 -5 -11 -10
-25 -10 -16 0 -25 -6 -25 -15 0 -11 -12 -15 -50 -15 -27 0 -50 -4 -50 -10 0
-5 -7 -10 -15 -10 -9 0 -15 -9 -15 -25 0 -14 -4 -25 -10 -25 -5 0 -10 -22 -10
-50 0 -27 5 -50 10 -50 6 0 10 -9 10 -20 0 -25 85 -110 110 -110 11 0 20 -7
20 -15 0 -8 5 -15 11 -15 14 0 39 -25 39 -39 0 -6 7 -11 15 -11 8 0 15 -7 15
-15 0 -9 -9 -15 -25 -15 -14 0 -25 -4 -25 -10 0 -5 -7 -10 -15 -10 -11 0 -15
-11 -15 -40 0 -29 4 -40 15 -40 9 0 15 -9 15 -25 0 -14 5 -25 10 -25 6 0 10
-11 10 -25 0 -14 5 -25 11 -25 6 0 17 -6 25 -14 19 -20 19 -132 0 -152 -20
-20 -25 -18 -60 20 -18 18 -42 37 -54 40 -12 4 -22 12 -22 17 0 5 -11 9 -25 9
-14 0 -28 7 -31 15 -8 20 -44 20 -44 0 0 -10 -10 -15 -30 -15 -29 0 -30 -1
-30 -50 0 -27 -4 -50 -10 -50 -5 0 -10 -7 -10 -15 0 -8 -7 -15 -15 -15 -10 0
-15 -11 -15 -35 0 -19 -4 -35 -10 -35 -5 0 -10 -11 -10 -25 0 -14 -7 -28 -15
-31 -9 -4 -15 -19 -15 -40 0 -24 5 -34 15 -34 11 0 15 -11 15 -36 0 -35 18
-64 39 -64 6 0 11 -7 11 -15 0 -12 15 -15 75 -15 43 0 75 -4 75 -10 0 -5 7
-10 15 -10 11 0 15 -11 15 -40 0 -29 -4 -40 -15 -40 -12 0 -15 -14 -15 -65 0
-51 3 -65 15 -65 8 0 15 -4 15 -10 0 -5 11 -10 25 -10 16 0 25 -6 25 -15 0 -9
9 -15 25 -15 16 0 25 -6 25 -15 0 -8 5 -15 11 -15 14 0 39 -25 39 -39 0 -7 37
-11 105 -11 58 0 105 -4 105 -9 0 -4 -11 -17 -25 -27 -14 -10 -25 -29 -25 -41
0 -14 -6 -23 -15 -23 -12 0 -15 -13 -15 -55 0 -30 -4 -55 -10 -55 -5 0 -10 -9
-10 -20 0 -11 -7 -23 -15 -26 -9 -4 -15 -19 -15 -39 0 -20 -6 -35 -15 -39 -11
-4 -15 -20 -15 -56 0 -27 -4 -50 -10 -50 -5 0 -10 -22 -10 -50 0 -38 -4 -50
-15 -50 -13 0 -15 -21 -15 -125 0 -104 2 -125 15 -125 9 0 15 -9 15 -25 0 -14
5 -25 10 -25 6 0 10 -7 10 -15 0 -8 7 -15 15 -15 8 0 15 -7 15 -15 0 -9 9 -15
25 -15 14 0 25 -4 25 -10 0 -5 11 -10 25 -10 16 0 25 -6 25 -15 0 -12 13 -15
55 -15 30 0 55 -4 55 -10 0 -5 16 -10 35 -10 24 0 35 -5 35 -15 0 -9 9 -15 25
-15 14 0 25 -4 25 -10 0 -5 9 -10 21 -10 21 0 109 -80 109 -100 0 -5 11 -10
25 -10 20 0 25 -5 25 -25 0 -20 5 -25 25 -25 14 0 25 -4 25 -10 0 -5 7 -10 15
-10 8 0 15 -7 15 -15 0 -8 5 -15 11 -15 14 0 39 -25 39 -39 0 -6 7 -11 15 -11
8 0 15 -5 15 -11 0 -14 25 -39 39 -39 6 0 11 -7 11 -15 0 -8 5 -15 10 -15 6 0
10 -11 10 -25 0 -14 5 -25 11 -25 19 0 69 -58 69 -79 0 -12 6 -21 15 -21 8 0
15 -5 15 -11 0 -14 25 -39 39 -39 6 0 11 -5 11 -11 0 -14 25 -39 39 -39 6 0
11 -4 11 -10 0 -5 9 -19 20 -30 19 -19 32 -21 165 -19 117 1 145 4 145 15 0
10 12 14 40 14 29 0 40 4 40 15 0 9 9 15 25 15 14 0 25 5 25 10 0 6 42 10 105
10 63 0 105 -4 105 -10 0 -6 40 -10 100 -10 60 0 100 4 100 10 0 6 23 10 51
10 49 0 79 -15 79 -39 0 -7 25 -11 65 -11 51 0 65 -3 65 -15 0 -9 9 -15 25
-15 20 0 25 -5 25 -25 0 -16 -6 -25 -15 -25 -9 0 -15 -9 -15 -25 0 -14 -4 -25
-10 -25 -5 0 -10 -7 -10 -15 0 -21 -98 -21 -106 0 -4 9 -19 15 -39 15 -20 0
-35 6 -39 15 -8 22 -126 22 -126 0 0 -8 -4 -15 -10 -15 -5 0 -10 -22 -10 -50
0 -38 -4 -50 -15 -50 -8 0 -15 5 -15 10 0 6 -7 10 -15 10 -8 0 -15 5 -15 11 0
17 -27 39 -50 39 -11 0 -23 7 -26 15 -4 8 -17 15 -30 15 -15 0 -24 6 -24 15 0
10 -11 15 -35 15 -24 0 -35 -5 -35 -15 0 -11 -11 -15 -40 -15 l-40 0 0 -105
c0 -63 -4 -105 -10 -105 -17 0 -13 -189 4 -206 10 -10 39 -14 100 -14 70 0 86
-3 86 -15 0 -11 11 -15 40 -15 l40 0 0 -75 c0 -43 4 -75 10 -75 6 0 10 -7 10
-15 0 -11 11 -15 40 -15 22 0 40 -4 40 -10 0 -5 11 -10 25 -10 16 0 25 -6 25
-15 0 -9 9 -15 25 -15 21 0 25 -5 25 -30 0 -16 -4 -30 -10 -30 -5 0 -10 -22
-10 -50 0 -38 -4 -50 -15 -50 -12 0 -15 -13 -15 -60 0 -47 3 -60 15 -60 8 0
15 -5 15 -11 0 -14 25 -39 39 -39 6 0 11 -13 11 -30 0 -16 5 -30 11 -30 16 0
39 -26 39 -44 0 -22 56 -76 80 -76 11 0 20 -7 20 -15 0 -8 5 -15 11 -15 14 0
69 -55 69 -69 0 -6 5 -11 11 -11 14 0 39 -25 39 -39 0 -6 5 -11 11 -11 14 0
39 -25 39 -39 0 -6 11 -11 25 -11 14 0 25 -4 25 -10 0 -5 7 -10 15 -10 10 0
15 -10 15 -30 0 -25 4 -30 25 -30 14 0 25 -4 25 -10 0 -5 7 -10 15 -10 9 0 15
-9 15 -25 0 -14 5 -25 10 -25 6 0 10 -7 10 -15 0 -8 7 -15 15 -15 9 0 15 -9
15 -21 0 -13 21 -41 50 -69 29 -28 50 -56 50 -69 0 -11 5 -21 11 -21 14 0 39
-25 39 -39 0 -6 7 -11 15 -11 8 0 15 -5 15 -11 0 -14 25 -39 39 -39 6 0 11 -9
11 -20 0 -12 11 -31 25 -44 14 -13 25 -33 25 -45 0 -11 5 -21 11 -21 14 0 39
-25 39 -39 0 -6 7 -11 15 -11 8 0 15 -5 15 -11 0 -14 25 -39 39 -39 6 0 11 -7
11 -15 0 -8 5 -15 11 -15 14 0 39 -25 39 -39 0 -6 11 -11 25 -11 14 0 25 -4
25 -10 0 -5 11 -10 25 -10 16 0 25 -6 25 -15 0 -13 49 -15 384 -15 332 0 385
2 390 15 4 11 22 15 76 15 40 0 70 4 70 10 0 6 28 10 64 10 48 0 65 4 70 15 4
11 20 15 56 15 27 0 50 5 50 10 0 6 16 10 35 10 24 0 35 5 35 15 0 12 13 15
55 15 30 0 55 5 55 10 0 6 23 10 50 10 38 0 50 4 50 15 0 11 12 15 49 15 34 0
51 4 55 15 3 9 19 15 41 15 19 0 35 5 35 10 0 6 15 10 34 10 21 0 36 6 40 15
3 9 19 15 41 15 19 0 35 5 35 10 0 6 9 10 20 10 31 0 80 55 80 90 0 18 6 33
15 36 10 4 15 20 15 45 0 28 4 39 15 39 11 0 15 12 15 50 0 28 5 50 10 50 6 0
10 23 10 50 0 38 4 50 15 50 10 0 15 11 15 35 0 61 22 75 117 75 49 0 83 4 83
10 0 6 93 10 260 10 224 0 260 2 260 15 0 13 33 15 240 15 153 0 240 4 240 10
0 7 218 10 635 10 417 0 635 -3 635 -10 0 -6 65 -10 175 -10 149 0 175 -2 175
-15 0 -13 21 -15 130 -15 80 0 130 -4 130 -10 0 -6 45 -10 115 -10 96 0 115
-3 115 -15 0 -11 11 -15 40 -15 36 0 40 -3 40 -24 0 -13 7 -26 15 -30 9 -3 15
-19 15 -41 0 -19 5 -35 10 -35 6 0 10 -37 10 -90 0 -73 3 -90 15 -90 12 0 15
-18 15 -100 0 -60 4 -100 10 -100 6 0 10 -11 10 -25 0 -20 5 -25 25 -25 16 0
25 -6 25 -15 0 -8 7 -15 15 -15 8 0 15 -7 15 -15 0 -9 9 -15 25 -15 14 0 25
-4 25 -10 0 -5 18 -10 40 -10 29 0 40 -4 40 -15 0 -10 11 -15 35 -15 19 0 35
-4 35 -10 0 -6 37 -10 90 -10 73 0 90 -3 90 -15 0 -11 11 -15 40 -15 22 0 40
-4 40 -10 0 -6 27 -10 60 -10 45 0 62 -4 66 -15 5 -11 22 -15 70 -15 50 0 64
-3 64 -15 0 -12 18 -15 100 -15 60 0 100 -4 100 -10 0 -5 18 -10 40 -10 29 0
40 -4 40 -15 0 -12 18 -15 105 -15 63 0 105 -4 105 -10 0 -6 32 -10 75 -10 60
0 75 -3 75 -15 0 -22 295 -22 304 0 3 9 19 15 41 15 19 0 35 5 35 10 0 6 11
10 25 10 16 0 25 6 25 15 0 8 4 15 10 15 18 0 120 110 120 130 0 11 7 20 15
20 8 0 15 7 15 15 0 8 5 15 10 15 6 0 10 11 10 25 0 16 6 25 15 25 8 0 15 7
15 15 0 8 5 15 10 15 6 0 10 8 10 18 0 18 33 52 50 52 6 0 10 11 10 25 0 14 5
25 10 25 6 0 10 7 10 15 0 8 5 15 11 15 16 0 39 26 39 45 0 24 136 155 160
155 11 0 20 7 20 15 0 8 9 15 20 15 26 0 60 34 60 60 0 11 7 20 15 20 8 0 15
5 15 10 0 6 11 10 25 10 20 0 25 5 25 25 0 14 5 25 10 25 6 0 10 7 10 15 0 8
7 15 15 15 8 0 15 5 15 10 0 6 11 10 25 10 16 0 25 6 25 15 0 8 7 15 15 15 8
0 15 5 15 11 0 14 25 39 39 39 6 0 11 5 11 11 0 14 25 39 39 39 6 0 11 5 11
11 0 14 25 39 39 39 6 0 11 7 11 15 0 9 9 15 24 15 13 0 26 7 30 15 3 8 15 15
26 15 16 0 20 6 20 35 0 24 5 35 15 35 12 0 15 18 15 105 0 87 -3 105 -15 105
-11 0 -15 12 -15 50 0 46 2 50 24 50 13 0 26 7 30 15 3 8 15 15 26 15 11 0 20
5 20 10 0 6 7 10 15 10 11 0 15 12 15 45 0 50 25 85 60 85 11 0 20 7 20 15 0
9 9 15 25 15 14 0 25 5 25 10 0 6 11 10 25 10 16 0 25 6 25 15 0 9 9 15 25 15
14 0 25 5 25 10 0 6 7 10 15 10 9 0 15 9 15 25 0 14 5 25 10 25 6 0 10 18 10
40 0 29 4 40 15 40 9 0 15 9 15 25 0 16 -6 25 -15 25 -9 0 -15 9 -15 25 0 14
-4 25 -10 25 -6 0 -10 28 -10 65 0 37 4 65 10 65 15 0 12 70 -4 86 -17 16
-156 20 -156 4 0 -5 -7 -10 -15 -10 -8 0 -15 -7 -15 -15 0 -8 -7 -15 -15 -15
-8 0 -15 -4 -15 -10 0 -15 -70 -12 -86 4 -8 8 -14 24 -14 35 0 18 -6 21 -50
21 -27 0 -50 -4 -50 -10 0 -5 -11 -10 -25 -10 -16 0 -25 -6 -25 -15 0 -9 -9
-15 -25 -15 -14 0 -25 -4 -25 -10 0 -6 -28 -10 -65 -10 l-65 0 0 65 c0 59 2
65 21 65 22 0 49 22 49 39 0 6 5 11 11 11 14 0 39 25 39 39 0 6 18 11 40 11
29 0 40 -4 40 -15 0 -9 9 -15 25 -15 16 0 25 6 25 15 0 11 11 15 40 15 29 0
40 -4 40 -15 0 -9 9 -15 25 -15 14 0 25 -4 25 -10 0 -5 11 -10 25 -10 16 0 25
-6 25 -15 0 -8 7 -15 15 -15 8 0 15 7 15 15 0 12 15 15 75 15 60 0 75 -3 75
-15 0 -10 10 -15 30 -15 17 0 30 -4 30 -10 0 -6 32 -10 75 -10 60 0 75 -3 75
-15 0 -11 11 -15 40 -15 29 0 40 -4 40 -15 0 -11 12 -15 50 -15 28 0 50 -4 50
-10 0 -5 21 -10 46 -10 48 0 74 16 74 47 0 19 32 53 50 53 6 0 10 5 10 11 0
14 25 39 39 39 6 0 11 5 11 11 0 14 25 39 39 39 6 0 11 7 11 15 0 8 5 15 10
15 6 0 10 11 10 25 0 16 6 25 15 25 8 0 15 7 15 15 0 8 7 15 15 15 8 0 15 5
15 10 0 6 11 10 25 10 20 0 25 5 25 25 0 14 5 25 10 25 6 0 10 7 10 15 0 8 7
15 15 15 8 0 15 7 15 15 0 9 9 15 25 15 14 0 25 5 25 10 0 6 7 10 15 10 8 0
15 5 15 11 0 17 27 39 49 39 12 0 21 6 21 15 0 8 5 15 11 15 14 0 39 25 39 39
0 6 14 11 30 11 20 0 30 5 30 15 0 9 9 15 23 15 12 0 31 11 41 25 10 14 27 25
37 25 11 0 19 5 19 10 0 6 7 10 15 10 8 0 15 5 15 11 0 16 27 39 46 39 9 0 40
25 69 55 28 30 59 55 68 55 10 0 17 8 17 19 0 10 13 28 30 41 28 22 30 27 30
90 0 51 -4 69 -15 74 -9 3 -15 18 -15 40 0 21 -6 36 -15 40 -8 3 -15 15 -15
26 0 11 -4 20 -10 20 -5 0 -10 18 -10 40 0 29 -4 40 -15 40 -9 0 -15 9 -15 25
0 14 -4 25 -10 25 -5 0 -10 23 -10 50 0 38 -4 50 -15 50 -10 0 -15 10 -15 30
0 17 5 30 11 30 26 0 39 30 39 89 l0 61 55 0 c52 0 55 1 55 25 0 14 5 25 10
25 6 0 10 7 10 15 0 12 15 15 76 15 74 0 104 11 104 39 0 6 7 11 15 11 8 0 15
7 15 15 0 8 5 15 10 15 6 0 10 32 10 75 0 43 -4 75 -10 75 -5 0 -10 7 -10 15
0 9 9 15 25 15 14 0 25 5 25 10 0 6 18 10 40 10 22 0 40 5 40 11 0 14 25 39
39 39 6 0 11 7 11 15 0 8 5 15 10 15 6 0 10 15 10 34 0 21 6 36 15 40 9 3 15
19 15 41 0 24 -4 35 -15 35 -9 0 -15 9 -15 25 0 14 -4 25 -10 25 -5 0 -10 7
-10 15 0 8 -7 15 -15 15 -8 0 -15 5 -15 10 0 6 -11 10 -25 10 -16 0 -25 6 -25
15 0 9 -9 15 -25 15 -14 0 -25 5 -25 10 0 6 -32 10 -75 10 -62 0 -75 -3 -75
-16 0 -23 -64 -84 -89 -84 -16 0 -21 6 -21 25 0 14 -4 25 -10 25 -5 0 -10 7
-10 15 0 12 -14 15 -65 15 -63 0 -65 1 -65 25 0 24 2 25 65 25 51 0 65 3 65
15 0 8 5 15 10 15 6 0 10 16 10 35 0 24 5 35 15 35 9 0 15 10 15 26 0 30 21
54 48 54 11 0 22 7 26 15 3 8 17 15 31 15 20 0 25 5 25 25 0 14 5 25 10 25 15
0 12 89 -3 105 -8 7 -24 15 -37 17 -27 3 -40 28 -16 28 9 0 16 7 16 15 0 9 9
15 25 15 14 0 25 5 25 10 0 6 7 10 15 10 8 0 15 7 15 15 0 8 5 15 10 15 6 0
10 11 10 25 0 16 6 25 15 25 9 0 15 9 15 25 0 14 5 25 10 25 6 0 10 11 10 25
0 16 6 25 15 25 12 0 15 17 15 90 l0 90 -105 0 c-63 0 -105 4 -105 10 0 6 -35
10 -85 10 -50 0 -85 -4 -85 -10 0 -5 -7 -10 -15 -10 -9 0 -15 -9 -15 -25 0
-14 -4 -25 -10 -25 -5 0 -10 -7 -10 -15 0 -8 -7 -15 -15 -15 -8 0 -15 -4 -15
-10 0 -5 -18 -10 -40 -10 -39 0 -40 1 -40 35 0 29 -4 35 -21 35 -22 0 -49 -22
-49 -39 0 -6 -7 -11 -15 -11 -8 0 -15 -4 -15 -10 0 -5 -11 -10 -25 -10 -16 0
-25 -6 -25 -15 0 -8 -7 -15 -15 -15 -8 0 -15 -5 -15 -11 0 -17 -27 -39 -49
-39 -16 0 -21 -6 -21 -25 0 -16 -6 -25 -15 -25 -11 0 -15 -11 -15 -36 0 -51
-18 -64 -89 -64 -48 0 -61 -3 -61 -15 0 -8 -7 -15 -15 -15 -8 0 -15 -5 -15
-11 0 -14 -25 -39 -39 -39 -6 0 -11 -11 -11 -25 0 -14 -4 -25 -10 -25 -5 0
-10 -11 -10 -25 0 -21 -5 -25 -30 -25 l-30 0 0 75 c0 43 4 75 10 75 6 0 10 11
10 25 0 14 7 28 15 31 9 4 15 19 15 40 0 24 5 34 15 34 12 0 15 13 15 55 0 30
5 55 10 55 6 0 10 16 10 35 0 24 5 35 15 35 9 0 15 9 15 25 0 14 5 25 10 25 6
0 10 7 10 15 0 8 7 15 15 15 8 0 15 5 15 11 0 14 25 39 39 39 6 0 11 7 11 15
0 8 5 15 11 15 14 0 39 25 39 39 0 6 7 11 15 11 8 0 15 5 15 10 0 6 15 10 34
10 21 0 36 6 40 15 8 22 156 22 156 0 0 -12 13 -15 55 -15 30 0 55 -4 55 -10
0 -5 11 -10 25 -10 16 0 25 -6 25 -15 0 -27 77 -20 104 10 13 14 28 25 35 25
6 0 11 7 11 15 0 9 9 15 25 15 20 0 25 -5 25 -25 0 -16 6 -25 15 -25 11 0 15
-11 15 -36 0 -62 9 -65 215 -72 l184 -5 11 27 c5 15 10 59 10 97 l0 69 55 0
c30 0 55 5 55 10 0 6 18 10 40 10 22 0 40 5 40 10 0 6 11 10 25 10 23 0 25 4
25 40 0 29 4 40 15 40 11 0 15 11 15 36 0 35 18 64 39 64 6 0 11 18 11 40 0
22 5 40 10 40 6 0 10 11 10 25 0 14 -4 25 -10 25 -5 0 -10 9 -10 21 0 13 29
49 75 95 72 70 75 76 75 119 0 31 5 47 15 51 19 8 19 24 0 24 -10 0 -15 11
-15 35 0 19 -4 35 -10 35 -5 0 -10 7 -10 15 0 8 -5 15 -11 15 -14 0 -69 55
-69 69 0 6 -7 11 -15 11 -9 0 -15 9 -15 21 0 26 -23 49 -49 49 -12 0 -21 6
-21 15 0 10 -10 15 -34 15 -21 0 -36 -6 -40 -15 -3 -8 -15 -15 -26 -15 -27 0
-50 -23 -50 -49 0 -12 -6 -21 -15 -21 -10 0 -15 -10 -15 -30 0 -16 -4 -30 -10
-30 -5 0 -10 -8 -10 -18 0 -23 -34 -52 -61 -52 -22 0 -49 22 -49 39 0 6 -11
11 -25 11 -16 0 -25 -6 -25 -15 0 -8 -9 -15 -20 -15 -26 0 -80 -54 -80 -80 0
-11 -5 -20 -11 -20 -14 0 -39 -25 -39 -39 0 -6 -7 -11 -15 -11 -8 0 -15 -7
-15 -15 0 -21 -98 -21 -106 0 -4 9 -19 15 -40 15 -24 0 -34 -5 -34 -15 0 -10
-10 -15 -30 -15 -23 0 -30 4 -30 20 0 11 7 20 15 20 8 0 15 5 15 10 0 6 7 10
15 10 8 0 15 7 15 15 0 10 11 15 35 15 19 0 35 5 35 10 0 6 14 10 30 10 20 0
30 5 30 15 0 9 9 15 21 15 39 0 49 23 49 110 0 87 -10 110 -49 110 -12 0 -21
6 -21 15 0 19 -16 19 -24 0 -3 -9 -19 -15 -41 -15 -19 0 -35 -4 -35 -10 0 -5
-11 -10 -25 -10 -16 0 -25 -6 -25 -15 0 -9 -9 -15 -25 -15 -14 0 -25 -4 -25
-10 0 -5 -9 -10 -20 -10 -17 0 -20 7 -20 50 0 47 -2 50 -25 50 -16 0 -25 6
-25 15 0 8 9 15 20 15 12 0 31 11 44 25 17 18 34 25 60 25 20 0 36 5 36 11 0
17 27 39 48 39 11 0 22 7 26 15 3 8 17 15 31 15 14 0 25 5 25 10 0 6 11 10 25
10 16 0 25 6 25 15 0 10 10 15 34 15 21 0 36 6 40 15 3 8 15 15 26 15 23 0 50
22 50 39 0 6 5 11 11 11 14 0 39 25 39 39 0 6 11 11 25 11 14 0 25 5 25 10 0
6 11 10 25 10 19 0 25 5 25 23 0 22 31 57 50 57 6 0 10 11 10 25 0 14 5 25 10
25 7 0 10 157 10 450 0 393 2 450 15 450 11 0 15 11 15 40 0 22 5 40 10 40 6
0 10 23 10 50 0 38 4 50 15 50 11 0 15 11 15 40 0 22 5 40 10 40 6 0 10 27 10
60 0 45 4 62 15 66 12 5 15 25 15 90 0 68 -3 84 -15 84 -11 0 -15 11 -15 40 0
22 -4 40 -10 40 -5 0 -10 11 -10 25 0 16 -6 25 -15 25 -9 0 -15 9 -15 25 0 14
-4 25 -10 25 -5 0 -10 11 -10 25 0 16 -6 25 -15 25 -8 0 -15 5 -15 10 0 6 -8
10 -18 10 -10 0 -29 13 -42 30 -14 16 -35 29 -47 30 -13 0 -23 5 -23 10 0 6
-11 10 -25 10 -14 0 -25 5 -25 11 0 21 -29 39 -64 39 -25 0 -36 4 -36 15 0 8
-7 15 -15 15 -11 0 -15 12 -15 50 0 36 4 52 15 56 8 4 15 17 15 30 0 13 5 24
10 24 6 0 10 27 10 60 0 33 -4 60 -10 60 -5 0 -10 14 -10 30 0 17 5 30 10 30
6 0 10 52 10 135 0 111 3 137 15 141 24 10 18 62 -10 88 -14 13 -25 33 -25 45
0 11 -5 21 -11 21 -24 0 -38 36 -39 98 0 35 4 62 10 62 6 0 10 11 10 25 0 16
6 25 15 25 12 0 15 15 15 75 0 47 -4 75 -11 75 -19 0 -39 28 -39 54 0 14 -5
26 -11 26 -14 0 -39 25 -39 39 0 6 -5 11 -11 11 -17 0 -39 27 -39 49 0 12 -6
21 -15 21 -8 0 -15 7 -15 15 0 11 -12 15 -50 15 -47 0 -50 -2 -50 -25 0 -14
-4 -25 -10 -25 -5 0 -10 -18 -10 -40 0 -29 -4 -40 -15 -40 -12 0 -15 17 -15
90 0 88 -1 90 -24 90 -13 0 -31 11 -42 25 -10 14 -29 25 -41 25 -21 0 -23 5
-23 45 0 25 5 45 10 45 6 0 10 30 10 70 0 40 -4 70 -10 70 -5 0 -10 11 -10 24
0 13 -7 26 -15 30 -8 3 -15 17 -15 31 0 14 -4 25 -10 25 -5 0 -10 23 -10 50 0
31 -4 50 -11 50 -7 0 -22 11 -35 25 -33 36 -84 34 -124 -5 -16 -16 -30 -38
-30 -50 0 -11 -7 -20 -15 -20 -9 0 -15 -9 -15 -25 0 -14 -4 -25 -10 -25 -6 0
-10 -28 -10 -65 0 -51 -3 -65 -15 -65 -8 0 -15 -7 -15 -15 0 -8 -7 -15 -15
-15 -13 0 -15 21 -15 129 0 76 4 132 10 136 6 3 10 48 10 101 0 56 -4 94 -10
94 -5 0 -10 20 -10 45 0 25 5 45 10 45 6 0 10 23 10 50 0 38 4 50 15 50 11 0
15 12 15 50 0 28 5 50 10 50 6 0 10 23 10 50 0 28 -4 50 -10 50 -5 0 -10 23
-10 50 0 38 -4 50 -15 50 -8 0 -15 5 -15 11 0 14 -25 39 -39 39 -6 0 -11 7
-11 15 0 11 -11 15 -40 15 -22 0 -40 5 -40 10 0 6 -9 10 -20 10 -11 0 -23 7
-26 15 -4 11 -21 15 -55 15 -27 0 -49 5 -49 10 0 6 -22 10 -50 10 -38 0 -50 4
-50 15 0 8 -7 15 -15 15 -8 0 -15 7 -15 15 0 11 -12 15 -50 15 -27 0 -50 5
-50 10 0 6 -11 10 -25 10 -16 0 -25 6 -25 15 0 8 -5 15 -11 15 -17 0 -39 27
-39 48 0 11 -7 22 -15 26 -11 4 -15 23 -15 81 0 60 -3 75 -15 75 -8 0 -15 9
-15 21 0 11 -16 35 -35 53 -19 19 -35 38 -35 45 0 6 -11 11 -25 11 -14 0 -25
5 -25 10 0 6 -11 10 -24 10 -13 0 -31 11 -42 25 -15 20 -28 25 -61 25 -24 0
-43 -4 -43 -10 0 -5 -7 -10 -15 -10 -8 0 -15 -7 -15 -15 0 -9 -9 -15 -25 -15
-20 0 -25 -5 -25 -25 0 -14 -5 -25 -10 -25 -6 0 -32 -22 -59 -50 -46 -48 -71
-62 -71 -40 0 6 -19 10 -41 10 -35 0 -48 6 -75 35 l-34 34 0 136 c0 113 -2
135 -15 135 -9 0 -15 9 -15 25 0 20 -5 25 -25 25 -16 0 -25 6 -25 15 0 8 -4
15 -10 15 -5 0 -10 16 -10 35 0 24 -5 35 -15 35 -11 0 -15 12 -15 49 0 34 -4
51 -15 55 -9 3 -15 19 -15 41 0 19 -4 35 -10 35 -5 0 -10 18 -10 40 0 29 -4
40 -15 40 -9 0 -15 9 -15 25 0 14 -4 25 -10 25 -5 0 -10 23 -10 50 l0 50 -90
0 c-73 0 -90 3 -90 15 0 8 -5 15 -11 15 -21 0 -39 29 -39 64 0 25 -4 36 -15
36 -11 0 -15 12 -15 45 0 52 -25 85 -66 85 -26 0 -84 48 -84 69 0 6 -11 11
-25 11 -14 0 -25 5 -25 10 0 6 -7 10 -15 10 -8 0 -15 7 -15 15 0 12 -15 15
-75 15 -60 0 -75 -3 -75 -15 0 -8 -4 -15 -10 -15 -5 0 -10 -9 -10 -20 0 -11
-7 -23 -15 -26 -8 -4 -15 -17 -15 -30 0 -15 -6 -24 -15 -24 -9 0 -15 -9 -15
-25 0 -14 -4 -25 -10 -25 -6 0 -10 -45 -10 -115 0 -70 4 -115 10 -115 6 0 10
-18 10 -40 0 -29 -4 -40 -15 -40 -8 0 -15 7 -15 15 0 9 -9 15 -25 15 -14 0
-25 5 -25 10 0 6 -22 10 -50 10 -27 0 -50 -4 -50 -10 0 -5 -18 -10 -40 -10
-39 0 -40 1 -40 35 0 19 -4 35 -10 35 -5 0 -10 11 -10 25 0 19 -5 25 -23 25
-22 0 -57 31 -57 50 0 6 -11 10 -25 10 -14 0 -25 5 -25 10 0 6 -11 10 -25 10
-16 0 -25 6 -25 15 0 9 -9 15 -25 15 -14 0 -25 5 -25 10 0 6 -20 10 -45 10
-35 0 -43 3 -39 15 5 11 -1 15 -20 15 -14 0 -26 5 -26 10 0 6 -7 10 -15 10 -8
0 -15 7 -15 15 0 11 -11 15 -40 15 -45 0 -80 -27 -80 -60 0 -16 -7 -20 -30
-20 -20 0 -30 5 -30 15 0 9 -9 15 -25 15 -14 0 -25 5 -25 10 0 6 -11 10 -25
10 -16 0 -25 6 -25 15 0 11 -11 15 -36 15 -35 0 -64 18 -64 39 0 6 -7 11 -15
11 -8 0 -15 7 -15 15 0 8 -5 15 -11 15 -14 0 -39 25 -39 39 0 6 -5 11 -11 11
-14 0 -39 25 -39 39 0 6 -5 11 -11 11 -14 0 -39 25 -39 39 0 6 -7 11 -15 11
-8 0 -15 9 -15 20 0 20 -52 80 -70 80 -5 0 -10 11 -10 25 0 14 -4 25 -10 25
-5 0 -10 7 -10 15 0 8 -7 15 -15 15 -9 0 -15 9 -15 25 0 14 -4 25 -10 25 -5 0
-10 7 -10 15 0 8 -4 15 -10 15 -17 0 -50 34 -50 52 0 10 -4 18 -10 18 -5 0
-10 7 -10 15 0 8 -7 15 -15 15 -9 0 -15 9 -15 25 0 14 -4 25 -10 25 -5 0 -10
7 -10 15 0 8 -5 15 -11 15 -17 0 -39 27 -39 49 0 12 -6 21 -15 21 -8 0 -15 6
-15 13 0 8 -11 20 -25 27 -14 7 -25 19 -25 27 0 7 -7 13 -15 13 -9 0 -15 9
-15 25 0 14 -4 25 -10 25 -5 0 -10 7 -10 15 0 8 -5 15 -11 15 -14 0 -39 25
-39 39 0 6 -4 11 -10 11 -5 0 -10 -18 -10 -40 0 -29 -4 -40 -15 -40 -13 0 -15
-24 -15 -155 0 -97 -4 -155 -10 -155 -6 0 -10 -57 -10 -150 0 -127 -2 -150
-15 -150 -12 0 -15 -18 -15 -105 0 -63 -4 -105 -10 -105 -6 0 -10 -39 -10 -98
0 -141 22 -132 -321 -132 -246 0 -280 -2 -275 -15 3 -9 0 -15 -9 -15 -10 0
-15 -10 -15 -31 0 -30 19 -59 39 -59 6 0 11 -7 11 -15 0 -8 5 -15 11 -15 14 0
39 -25 39 -39 0 -6 7 -11 15 -11 9 0 15 -9 15 -25 0 -14 5 -25 10 -25 6 0 10
-7 10 -15 0 -8 5 -15 11 -15 14 0 39 -25 39 -39 0 -6 5 -11 11 -11 19 0 69
-58 69 -79 0 -12 6 -21 15 -21 8 0 15 -5 15 -11 0 -14 25 -39 39 -39 6 0 11
-5 11 -11 0 -14 25 -39 39 -39 6 0 11 -7 11 -15 0 -8 5 -15 11 -15 19 0 39
-28 39 -54 0 -14 5 -26 11 -26 14 0 39 -25 39 -39 0 -6 5 -11 11 -11 14 0 39
-25 39 -39 0 -6 5 -11 11 -11 14 0 119 -105 119 -119 0 -6 7 -11 15 -11 9 0
15 -9 15 -21 0 -22 22 -49 39 -49 6 0 11 -6 11 -13 0 -8 11 -20 25 -27 14 -7
25 -19 25 -27 0 -7 7 -13 15 -13 8 0 15 -5 15 -11 0 -14 25 -39 39 -39 6 0 11
-5 11 -11 0 -14 25 -39 39 -39 6 0 11 -7 11 -15 0 -9 9 -15 21 -15 21 0 79
-50 79 -69 0 -6 5 -11 11 -11 14 0 39 -25 39 -39 0 -6 5 -11 11 -11 14 0 39
-25 39 -39 0 -6 12 -11 26 -11 26 0 54 -20 54 -39 0 -6 7 -11 15 -11 8 0 15
-5 15 -11 0 -17 27 -39 49 -39 12 0 21 -6 21 -15 0 -8 5 -15 11 -15 7 0 22
-11 35 -25 13 -14 30 -25 39 -25 19 0 45 -23 45 -39 0 -6 10 -11 21 -11 12 0
32 -11 45 -25 13 -14 32 -25 44 -25 11 0 20 -7 20 -15 0 -8 7 -15 15 -15 8 0
15 -4 15 -10 0 -5 11 -10 25 -10 14 0 25 -5 25 -11 0 -17 27 -39 50 -39 11 0
23 -7 26 -15 4 -8 17 -15 30 -15 13 0 24 -4 24 -10 0 -5 9 -10 20 -10 11 0 23
-7 26 -15 4 -8 17 -15 30 -15 15 0 24 -6 24 -15 0 -9 9 -15 25 -15 14 0 25 -4
25 -10 0 -5 18 -10 40 -10 29 0 40 -4 40 -15 0 -9 9 -15 25 -15 14 0 25 -4 25
-10 0 -5 11 -10 25 -10 16 0 25 -6 25 -15 0 -11 11 -15 40 -15 22 0 40 -4 40
-10 0 -5 9 -10 20 -10 11 0 23 -7 26 -15 4 -9 19 -15 40 -15 22 0 37 -6 40
-15 4 -9 19 -15 40 -15 19 0 34 -4 34 -10 0 -5 23 -10 50 -10 36 0 52 -4 56
-15 4 -9 19 -15 40 -15 19 0 34 -4 34 -10 0 -5 18 -10 40 -10 29 0 40 -4 40
-15 0 -11 11 -15 40 -15 22 0 40 -4 40 -10 0 -5 16 -10 35 -10 24 0 35 -5 35
-15 0 -12 13 -15 55 -15 30 0 55 -4 55 -10 0 -5 9 -10 20 -10 11 0 23 -7 26
-15 5 -11 22 -15 65 -15 44 0 61 -4 65 -15 4 -8 17 -15 30 -15 13 0 24 -4 24
-10 0 -5 16 -10 35 -10 32 0 35 -2 35 -30 0 -27 -3 -30 -34 -30 -21 0 -36 -6
-40 -15 -3 -8 -15 -15 -26 -15 -11 0 -20 -4 -20 -10 0 -5 -7 -10 -15 -10 -12
0 -15 -16 -15 -84 0 -65 3 -85 15 -90 9 -3 15 -19 15 -41 0 -19 5 -35 10 -35
6 0 10 -18 10 -40 0 -29 4 -40 15 -40 11 0 15 -11 15 -40 0 -22 5 -40 10 -40
6 0 10 -11 10 -25 0 -16 6 -25 15 -25 9 0 15 -9 15 -25 0 -14 5 -25 10 -25 6
0 10 -22 10 -50 0 -38 4 -50 15 -50 8 0 15 -7 15 -15 0 -8 7 -15 15 -15 8 0
15 -9 15 -21 0 -11 16 -35 35 -53 28 -26 35 -41 35 -70 0 -25 4 -36 15 -36 11
0 15 -12 15 -50 0 -27 5 -50 10 -50 6 0 10 -18 10 -40 0 -29 4 -40 15 -40 12
0 15 -13 15 -59 0 -43 4 -60 15 -65 11 -4 15 -20 15 -56 0 -27 5 -50 10 -50 6
0 10 -32 10 -75 0 -60 3 -75 15 -75 12 0 15 -15 15 -75 0 -43 4 -75 10 -75 6
0 10 -25 10 -55 0 -42 3 -55 15 -55 10 0 15 -11 15 -35 0 -19 5 -35 10 -35 6
0 10 -7 10 -15 0 -8 7 -15 15 -15 8 0 15 -5 15 -11 0 -16 26 -39 44 -39 9 0
16 -8 16 -20 0 -18 -7 -20 -80 -20 -47 0 -80 -4 -80 -10 0 -5 -12 -10 -26 -10
-26 0 -54 -20 -54 -39 0 -6 -7 -11 -15 -11 -8 0 -15 -7 -15 -15 0 -11 -12 -15
-50 -15 -27 0 -50 -4 -50 -10 0 -5 -7 -10 -15 -10 -11 0 -15 -12 -15 -50 0
-38 4 -50 15 -50 11 0 15 -12 15 -50 0 -38 4 -50 15 -50 8 0 15 -7 15 -15 0
-8 5 -15 10 -15 6 0 10 -11 10 -25 0 -20 5 -25 25 -25 14 0 25 -4 25 -10 0 -5
7 -10 15 -10 8 0 15 -7 15 -15 0 -9 9 -15 21 -15 29 0 79 -53 79 -84 0 -21 -5
-26 -25 -26 -24 0 -25 -3 -25 -60 0 -47 3 -60 15 -60 8 0 15 -5 15 -11 0 -14
25 -39 39 -39 6 0 11 -7 11 -15 0 -9 9 -15 25 -15 19 0 25 -5 25 -21 0 -25 23
-49 47 -49 19 0 53 -32 53 -50 0 -6 7 -10 15 -10 12 0 15 -16 15 -85 0 -50 4
-85 10 -85 6 0 10 -7 10 -15 0 -11 11 -15 40 -15 29 0 40 -4 40 -15 0 -9 9
-15 25 -15 14 0 25 -4 25 -10 0 -5 11 -10 25 -10 16 0 25 -6 25 -15 0 -9 9
-15 25 -15 14 0 25 -4 25 -10 0 -5 7 -10 15 -10 8 0 15 -7 15 -15 0 -9 9 -15
25 -15 14 0 25 -4 25 -10 0 -5 23 -10 50 -10 49 0 50 -1 50 -30 0 -20 5 -30
15 -30 9 0 15 -9 15 -25 0 -14 5 -25 10 -25 6 0 10 -11 10 -25 0 -16 6 -25 15
-25 9 0 15 -9 15 -25 0 -16 6 -25 15 -25 8 0 15 -7 15 -15 0 -8 5 -15 10 -15
6 0 10 -11 10 -25 0 -20 -5 -25 -26 -25 -30 0 -54 21 -54 48 0 11 -7 22 -15
26 -9 3 -15 19 -15 41 0 19 -4 35 -10 35 -5 0 -10 7 -10 15 0 8 -5 15 -11 15
-14 0 -39 25 -39 39 0 6 -7 11 -15 11 -8 0 -15 5 -15 10 0 6 -11 10 -25 10
-16 0 -25 6 -25 15 0 9 -9 15 -25 15 -16 0 -25 6 -25 15 0 9 -9 15 -25 15 -14
0 -25 5 -25 10 0 6 -16 10 -35 10 -29 0 -35 -4 -35 -20 0 -11 -7 -23 -15 -26
-9 -4 -15 -19 -15 -39 0 -20 6 -35 15 -39 8 -3 15 -15 15 -26 0 -11 5 -20 10
-20 6 0 10 -9 10 -20 0 -12 11 -31 25 -44 14 -13 25 -28 25 -35 0 -6 11 -11
25 -11 14 0 25 -4 25 -10 0 -5 7 -10 15 -10 8 0 15 -7 15 -15 0 -9 9 -15 25
-15 14 0 25 -4 25 -10 0 -6 28 -10 65 -10 51 0 65 -3 65 -15 0 -8 5 -15 10
-15 6 0 10 -7 10 -15 0 -9 -9 -15 -25 -15 -14 0 -25 -5 -25 -11 0 -14 -25 -39
-39 -39 -6 0 -11 11 -11 25 0 16 -6 25 -15 25 -8 0 -15 7 -15 15 0 11 -11 15
-36 15 -35 0 -64 18 -64 39 0 6 -11 11 -25 11 -14 0 -25 5 -25 10 0 6 -7 10
-15 10 -8 0 -15 7 -15 15 0 12 -15 15 -75 15 l-75 0 0 -40 c0 -22 -4 -40 -10
-40 -5 0 -10 -11 -10 -25 0 -16 -6 -25 -15 -25 -9 0 -15 -9 -15 -25 0 -14 -4
-25 -10 -25 -5 0 -10 -22 -10 -50 0 -27 5 -50 10 -50 6 0 10 -11 10 -25 0 -16
6 -25 15 -25 9 0 15 -9 15 -25 0 -14 5 -25 10 -25 6 0 10 -11 10 -25 0 -16 6
-25 15 -25 11 0 15 -11 15 -40 0 -29 -4 -40 -15 -40 -12 0 -15 -13 -15 -55 0
-30 -4 -55 -10 -55 -5 0 -10 -16 -10 -35 0 -24 -5 -35 -15 -35 -10 0 -15 -10
-15 -30 0 -16 -4 -30 -10 -30 -6 0 -10 -30 -10 -70 0 -54 -4 -72 -15 -76 -12
-5 -15 -27 -15 -110 0 -86 -3 -104 -15 -104 -12 0 -15 -13 -15 -60 0 -33 -4
-60 -10 -60 -6 0 -10 -28 -10 -65 0 -51 -3 -65 -15 -65 -11 0 -15 -12 -15 -50
0 -27 -4 -50 -10 -50 -5 0 -10 -25 -10 -55 0 -42 -3 -55 -15 -55 -11 0 -15
-12 -15 -50 0 -27 -4 -50 -10 -50 -5 0 -10 -22 -10 -50 0 -38 -4 -50 -15 -50
-9 0 -15 -9 -15 -25 0 -14 -4 -25 -10 -25 -5 0 -10 -16 -10 -35 0 -22 -6 -38
-15 -41 -8 -4 -15 -17 -15 -30 0 -15 -6 -24 -15 -24 -9 0 -15 -9 -15 -25 0
-14 -4 -25 -10 -25 -5 0 -10 -11 -10 -25 0 -16 -6 -25 -15 -25 -10 0 -15 -10
-15 -30 0 -16 -4 -30 -10 -30 -5 0 -10 -9 -10 -20 0 -11 -7 -23 -15 -26 -8 -4
-15 -17 -15 -30 0 -13 -4 -24 -10 -24 -5 0 -10 -9 -10 -20 0 -11 -7 -23 -15
-26 -10 -4 -15 -20 -15 -45 0 -28 -4 -39 -15 -39 -9 0 -15 -9 -15 -25 0 -14
-4 -25 -10 -25 -5 0 -10 -11 -10 -25 0 -16 -6 -25 -15 -25 -9 0 -15 -9 -15
-25 0 -14 -4 -25 -10 -25 -5 0 -10 -18 -10 -40 0 -29 -4 -40 -15 -40 -9 0 -15
-9 -15 -25 0 -14 -4 -25 -10 -25 -6 0 -10 -27 -10 -60 0 -45 -4 -62 -15 -66
-12 -5 -15 -33 -15 -164 0 -131 3 -159 15 -164 8 -3 15 -17 15 -31 0 -14 5
-25 10 -25 6 0 10 -11 10 -25 0 -16 6 -25 15 -25 11 0 15 -11 15 -40 0 -29 -4
-40 -15 -40 -12 0 -15 -15 -15 -75 0 -60 -3 -75 -15 -75 -8 0 -15 5 -15 10 0
6 -16 10 -35 10 -19 0 -35 -4 -35 -10 0 -5 -11 -10 -25 -10 -22 0 -25 -4 -25
-40 0 -29 -4 -40 -15 -40 -9 0 -15 -9 -15 -25 0 -24 -2 -25 -65 -25 -51 0 -65
-3 -65 -15 0 -9 -9 -15 -25 -15 -14 0 -25 -4 -25 -10 0 -5 -11 -10 -25 -10
-16 0 -25 -6 -25 -15 0 -8 -7 -15 -15 -15 -9 0 -15 -9 -15 -25 0 -14 -4 -25
-10 -25 -5 0 -10 -7 -10 -15 0 -8 -7 -15 -15 -15 -9 0 -15 -9 -15 -25 0 -14
-4 -25 -10 -25 -5 0 -10 -11 -10 -25 0 -16 -6 -25 -15 -25 -9 0 -15 -9 -15
-21 0 -12 -11 -32 -25 -45 -14 -13 -25 -32 -25 -44 0 -11 -7 -20 -15 -20 -9 0
-15 -9 -15 -21 0 -22 -22 -49 -39 -49 -6 0 -11 -5 -11 -11 0 -7 -11 -22 -25
-35 -14 -13 -25 -30 -25 -39 0 -19 -23 -45 -39 -45 -6 0 -11 -7 -11 -15 0 -8
-5 -15 -11 -15 -14 0 -39 -25 -39 -39 0 -6 -7 -11 -15 -11 -8 0 -15 -5 -15
-11 0 -14 -25 -39 -39 -39 -6 0 -11 -5 -11 -11 0 -14 -25 -39 -39 -39 -6 0
-11 -5 -11 -11 0 -14 -25 -39 -39 -39 -6 0 -11 -9 -11 -21 0 -24 -61 -89 -83
-89 -9 0 -17 -10 -19 -23 -2 -14 -11 -23 -25 -25 -13 -2 -23 -8 -23 -13 0 -5
-7 -9 -15 -9 -8 0 -15 -7 -15 -15 0 -8 -5 -15 -11 -15 -14 0 -39 -25 -39 -39
0 -6 -7 -11 -15 -11 -8 0 -15 -7 -15 -15 0 -8 -9 -15 -21 -15 -11 0 -35 -16
-53 -35 -19 -19 -38 -35 -45 -35 -6 0 -11 -11 -11 -25 0 -14 -4 -25 -10 -25
-5 0 -10 -11 -10 -25 0 -14 -7 -28 -15 -31 -9 -4 -15 -19 -15 -40 0 -19 -4
-34 -10 -34 -6 0 -10 -100 -10 -280 0 -180 4 -280 10 -280 6 0 10 -12 10 -26
0 -26 -20 -54 -39 -54 -6 0 -11 -7 -11 -15 0 -8 -4 -15 -10 -15 -5 0 -10 -11
-10 -25 0 -16 -6 -25 -15 -25 -13 0 -15 -20 -15 -121 0 -68 -4 -118 -9 -115
-5 3 -11 -1 -15 -9 -8 -21 -86 -21 -86 0 0 8 -7 15 -15 15 -12 0 -15 18 -15
105 0 87 3 105 15 105 11 0 15 11 15 40 0 29 4 40 15 40 9 0 15 9 15 25 0 14
5 25 10 25 6 0 10 28 10 65 0 51 3 65 15 65 8 0 15 9 15 20 0 11 -7 20 -15 20
-11 0 -15 11 -15 40 0 36 -2 40 -25 40 -14 0 -25 5 -25 10 0 6 -11 10 -25 10
-16 0 -25 6 -25 15 0 11 -11 15 -40 15 -22 0 -40 5 -40 10 0 6 -16 10 -35 10
-22 0 -38 6 -41 15 -4 11 -21 15 -55 15 -37 0 -49 4 -49 15 0 11 -9 15 -32 13
-18 -1 -33 3 -36 10 -2 6 -15 12 -28 12 -14 0 -27 7 -30 15 -4 8 -17 15 -30
15 -13 0 -24 5 -24 10 0 6 -22 10 -50 10 -38 0 -50 4 -50 15 0 11 -12 15 -50
15 -27 0 -50 5 -50 10 0 6 -16 10 -35 10 -22 0 -38 6 -41 15 -4 11 -21 15 -55
15 -37 0 -49 4 -49 15 0 11 -12 15 -50 15 -27 0 -50 5 -50 10 0 6 -28 10 -65
10 -51 0 -65 3 -65 15 0 12 -14 15 -65 15 -37 0 -65 4 -65 10 0 6 -32 10 -75
10 -58 0 -77 4 -81 15 -5 12 -25 15 -89 15 -46 0 -87 5 -90 10 -3 6 -50 10
-106 10 -81 0 -99 3 -99 15 0 12 -19 15 -115 15 -96 0 -115 3 -115 15 0 13
-22 15 -140 15 -87 0 -140 4 -140 10 0 6 -63 10 -170 10 -144 0 -170 2 -170
15 0 13 -63 15 -510 15 -447 0 -510 -2 -510 -15 0 -13 -24 -15 -155 -15 -97 0
-155 -4 -155 -10 0 -6 -45 -10 -115 -10 -96 0 -115 -3 -115 -15 0 -12 -17 -15
-90 -15 -73 0 -90 -3 -90 -15 0 -12 -17 -15 -90 -15 -53 0 -90 -4 -90 -10 0
-6 -32 -10 -75 -10 -60 0 -75 -3 -75 -15 0 -12 -14 -15 -65 -15 -37 0 -65 -4
-65 -10 0 -6 -28 -10 -65 -10 -51 0 -65 -3 -65 -15 0 -11 -12 -15 -50 -15 -27
0 -50 -4 -50 -10 0 -6 -37 -10 -90 -10 -73 0 -90 -3 -90 -15 0 -12 -14 -15
-65 -15 -51 0 -65 -3 -65 -15 0 -11 -12 -15 -50 -15 -27 0 -50 -4 -50 -10 0
-5 -18 -10 -40 -10 -29 0 -40 -4 -40 -15 0 -10 -11 -15 -35 -15 -19 0 -35 -4
-35 -10 0 -5 -18 -10 -40 -10 -29 0 -40 -4 -40 -15 0 -11 -12 -15 -50 -15 -27
0 -50 -4 -50 -10 0 -5 -9 -10 -21 -10 -17 0 -139 -110 -139 -126 0 -2 7 -4 15
-4 10 0 15 -11 15 -35 0 -19 5 -35 10 -35 6 0 10 -18 10 -40 0 -29 4 -40 15
-40 11 0 15 -11 15 -40 0 -22 5 -40 10 -40 6 0 10 -35 10 -85 0 -67 3 -87 15
-91 10 -4 15 -20 15 -45 0 -34 -3 -39 -24 -39 -13 0 -26 -7 -30 -15 -3 -8 -10
-15 -16 -15 -6 0 -10 42 -10 113 0 128 -10 147 -75 147 -24 0 -35 5 -35 15 0
8 -4 15 -10 15 -6 0 -10 53 -10 140 0 93 -4 140 -11 140 -30 0 -39 29 -39 134
0 64 4 106 10 106 6 0 10 20 10 45 0 25 -4 45 -10 45 -6 0 -10 45 -10 115 0
96 -3 115 -15 115 -12 0 -15 13 -15 55 0 32 -4 55 -11 55 -14 0 -39 25 -39 39
0 6 -5 11 -11 11 -14 0 -39 25 -39 39 0 6 -7 11 -15 11 -9 0 -15 9 -15 25 0
14 -4 25 -10 25 -5 0 -10 7 -10 15 0 8 -5 15 -11 15 -14 0 -39 25 -39 39 0 6
-5 11 -11 11 -14 0 -119 105 -119 119 0 6 -5 11 -11 11 -14 0 -39 25 -39 39 0
6 -4 11 -10 11 -17 0 -50 34 -50 52 0 10 -4 18 -10 18 -5 0 -10 7 -10 15 0 8
-6 15 -13 15 -8 0 -20 11 -27 25 -7 14 -19 25 -27 25 -7 0 -13 11 -13 25 0 14
-4 25 -10 25 -5 0 -10 7 -10 15 0 8 -7 15 -15 15 -9 0 -15 9 -15 25 0 16 -6
25 -15 25 -9 0 -15 9 -15 25 0 14 -4 25 -10 25 -5 0 -10 7 -10 15 0 8 -5 15
-11 15 -14 0 -39 25 -39 39 0 6 -7 11 -15 11 -9 0 -15 9 -15 25 0 14 -4 25
-10 25 -5 0 -10 11 -10 25 0 16 -6 25 -15 25 -8 0 -15 7 -15 15 0 8 -5 15 -11
15 -14 0 -39 25 -39 39 0 6 -5 11 -11 11 -14 0 -39 25 -39 39 0 6 -5 11 -11
11 -14 0 -39 25 -39 39 0 6 -7 11 -15 11 -8 0 -15 7 -15 15 0 8 -7 15 -15 15
-8 0 -15 5 -15 10 0 6 -11 10 -25 10 -16 0 -25 6 -25 15 0 12 -13 15 -60 15
l-60 0 0 35 c0 24 -5 35 -15 35 -11 0 -15 11 -15 40 l0 40 -50 0 c-29 0 -50
-5 -50 -11 0 -17 -27 -39 -49 -39 -44 0 -61 29 -61 105 0 58 3 74 20 88 11 9
25 17 30 17 6 0 10 11 10 25 0 14 5 25 10 25 6 0 10 11 10 25 0 16 6 25 15 25
9 0 15 9 15 25 0 14 5 25 10 25 6 0 10 23 10 50 0 28 -4 50 -10 50 -6 0 -10
28 -10 65 0 51 -3 65 -15 65 -11 0 -15 11 -15 40 0 22 -4 40 -10 40 -5 0 -10
16 -10 35 0 24 -5 35 -15 35 -11 0 -15 11 -15 39 0 25 -5 41 -15 45 -8 3 -15
15 -15 26 0 11 -4 20 -10 20 -5 0 -10 11 -10 24 0 13 -7 26 -15 30 -8 3 -15
15 -15 26 0 11 -4 20 -10 20 -5 0 -10 18 -10 40 0 29 -4 40 -15 40 -9 0 -15 9
-15 25 0 14 -4 25 -10 25 -5 0 -10 18 -10 40 0 29 -4 40 -15 40 -11 0 -15 12
-15 49 0 34 -4 51 -15 55 -9 3 -15 19 -15 41 0 19 -4 35 -10 35 -5 0 -10 11
-10 25 0 16 -6 25 -15 25 -9 0 -15 9 -15 25 0 14 -4 25 -10 25 -5 0 -10 18
-10 40 0 29 -4 40 -15 40 -11 0 -15 11 -15 40 0 22 -4 40 -10 40 -5 0 -10 16
-10 35 0 24 -5 35 -15 35 -12 0 -15 14 -15 64 0 48 -4 65 -15 70 -12 4 -15 31
-15 156 0 93 -4 150 -10 150 -6 0 -10 50 -10 130 0 109 -2 130 -15 130 -11 0
-15 12 -15 50 0 28 -4 50 -10 50 -5 0 -10 18 -10 40 0 29 -4 40 -15 40 -9 0
-15 9 -15 21 0 22 -22 49 -39 49 -6 0 -11 5 -11 11 0 14 -25 39 -39 39 -6 0
-11 14 -11 30 0 20 5 30 15 30 9 0 15 9 15 25 0 14 5 25 10 25 6 0 10 11 10
25 0 16 6 25 15 25 12 0 15 14 15 65 l0 65 -55 0 c-42 0 -55 3 -55 15 0 8 7
15 15 15 9 0 15 9 15 25 0 16 6 25 15 25 9 0 15 9 15 25 0 14 5 25 10 25 6 0
10 11 10 25 0 16 6 25 15 25 22 0 22 115 0 124 -8 3 -15 17 -15 31 0 14 -4 25
-10 25 -5 0 -10 11 -10 25 0 16 -6 25 -15 25 -11 0 -15 12 -15 50 l0 50 -50 0
c-49 0 -50 1 -50 30 0 17 5 30 10 30 6 0 10 11 10 25 0 16 6 25 15 25 27 0 20
77 -10 104 -14 13 -25 28 -25 35 0 6 -11 11 -25 11 -16 0 -25 6 -25 15 0 8 5
15 10 15 6 0 10 11 10 25 0 16 6 25 15 25 8 0 15 5 15 10 0 6 11 10 25 10 16
0 25 6 25 15 0 8 5 15 10 15 6 0 10 11 10 25 0 16 6 25 15 25 11 0 15 11 15
40 0 29 4 40 15 40 8 0 15 5 15 10 0 6 11 10 25 10 16 0 25 6 25 15 0 8 5 15
10 15 6 0 10 11 10 25 0 16 6 25 15 25 8 0 15 7 15 15 0 9 9 15 25 15 14 0 25
5 25 10 0 6 7 10 15 10 8 0 15 5 15 11 0 14 25 39 39 39 6 0 11 14 11 30 0 17
5 30 10 30 6 0 10 9 10 20 0 11 7 23 15 26 8 4 15 15 15 25 0 10 -7 19 -15 19
-11 0 -15 11 -15 38 0 50 26 72 85 72 41 0 45 2 45 25 0 20 5 25 25 25 16 0
25 6 25 15 0 8 5 15 11 15 17 0 39 27 39 49 0 12 6 21 15 21 11 0 15 11 15 40
0 29 -4 40 -15 40 -9 0 -15 9 -15 21 0 22 -22 49 -39 49 -6 0 -11 11 -11 25 0
14 -4 25 -10 25 -5 0 -10 11 -10 25 0 14 -7 28 -15 31 -11 4 -15 21 -15 55 0
43 -3 49 -20 49 -12 0 -31 9 -43 21 -21 19 -21 21 -4 33 15 12 17 32 17 175 0
136 2 161 15 161 12 0 15 19 15 115 0 70 4 115 10 115 6 0 10 18 10 40 0 29 4
40 15 40 11 0 15 12 15 50 0 28 5 50 10 50 6 0 10 16 10 35 0 22 6 38 15 41 8
4 15 17 15 30 0 13 5 24 10 24 6 0 10 11 10 25 0 14 5 25 11 25 17 0 39 27 39
50 0 11 7 23 15 26 8 4 15 17 15 30 0 13 5 24 11 24 21 0 39 29 39 64 0 25 4
36 15 36 9 0 15 9 15 25 0 14 5 25 10 25 6 0 10 11 10 25 0 16 6 25 15 25 9 0
15 9 15 25 0 14 5 25 10 25 6 0 10 11 10 25 0 14 7 28 15 31 8 4 15 17 15 30
0 15 6 24 15 24 10 0 15 11 15 35 0 19 5 35 10 35 6 0 10 23 10 50 0 36 4 52
15 56 8 4 15 17 15 29 0 13 6 26 13 29 9 5 9 7 0 12 -7 3 -13 17 -13 30 0 15
-6 24 -15 24 -9 0 -15 9 -15 25 0 14 -4 25 -10 25 -5 0 -10 7 -10 15 0 10 10
15 34 15 21 0 36 6 40 15 3 8 15 15 26 15 11 0 20 5 20 10 0 6 7 10 15 10 8 0
15 7 15 15 0 8 7 15 15 15 8 0 15 9 15 20 0 26 30 60 52 60 10 0 18 5 18 10 0
6 28 10 65 10 51 0 65 3 65 15 0 11 11 15 40 15 22 0 40 5 40 10 0 6 18 10 40
10 29 0 40 4 40 15 0 10 11 15 35 15 19 0 35 5 35 10 0 6 22 10 49 10 34 0 51
4 55 15 3 8 17 15 31 15 16 0 25 6 25 15 0 11 12 15 48 15 39 0 51 4 66 25 14
18 28 25 52 25 19 0 34 5 34 10 0 6 11 10 25 10 16 0 25 6 25 15 0 9 9 15 25
15 14 0 25 5 25 10 0 6 14 10 30 10 20 0 30 5 30 15 0 9 9 15 25 15 14 0 25 5
25 10 0 6 11 10 25 10 16 0 25 6 25 15 0 9 9 15 25 15 16 0 25 6 25 15 0 9 9
15 25 15 14 0 25 5 25 10 0 6 7 10 15 10 8 0 15 7 15 15 0 9 9 15 25 15 14 0
25 5 25 10 0 6 11 10 25 10 16 0 25 6 25 15 0 9 9 15 25 15 14 0 25 5 25 10 0
6 7 10 15 10 8 0 15 7 15 15 0 9 9 15 25 15 16 0 25 6 25 15 0 9 9 15 23 15
12 0 31 11 41 25 10 14 27 25 38 25 21 0 48 22 48 39 0 6 11 11 25 11 14 0 25
5 25 10 0 6 9 10 20 10 11 0 37 18 59 40 21 22 48 40 60 40 11 0 21 5 21 11 0
14 25 39 39 39 6 0 11 7 11 15 0 9 9 15 21 15 12 0 36 16 55 35 18 19 42 35
53 35 12 0 21 7 21 15 0 8 7 15 15 15 8 0 15 5 15 11 0 19 28 39 54 39 14 0
26 5 26 11 0 14 25 39 39 39 6 0 11 5 11 11 0 14 25 39 39 39 6 0 11 7 11 15
0 9 9 15 25 15 14 0 25 6 25 13 0 8 11 20 25 27 14 7 25 19 25 27 0 7 7 13 15
13 8 0 15 6 15 13 0 7 9 19 20 27 11 8 20 20 20 27 0 7 5 13 11 13 7 0 22 11
35 25 13 14 30 25 39 25 19 0 45 23 45 39 0 6 7 11 15 11 8 0 15 5 15 11 0 14
25 39 39 39 6 0 11 7 11 15 0 8 5 15 11 15 14 0 39 25 39 39 0 6 5 11 11 11
14 0 39 25 39 39 0 6 7 11 15 11 8 0 15 7 15 15 0 9 6 12 15 9 8 -4 15 -1 15
6 0 7 16 27 35 46 19 18 35 37 35 43 0 6 7 11 15 11 9 0 15 9 15 21 0 22 22
49 39 49 6 0 11 5 11 11 0 14 25 39 39 39 6 0 11 7 11 15 0 8 7 15 15 15 8 0
15 5 15 11 0 14 25 39 39 39 6 0 11 5 11 10 0 6 -11 10 -25 10 -14 0 -25 5
-25 10 0 6 -7 10 -15 10 -8 0 -15 7 -15 15 0 13 -37 15 -270 15 -233 0 -270 2
-270 15 0 9 -9 15 -21 15 -49 0 -49 -3 -49 474 0 390 -2 446 -15 446 -12 0
-15 15 -15 74 0 56 -4 75 -15 80 -11 4 -15 20 -15 56 0 27 -4 50 -10 50 -5 0
-10 -7 -10 -15z"/>
<path d="M7860 12856 c0 -3 4 -16 10 -30 23 -62 106 -72 135 -16 8 16 15 34
15 40 0 18 -29 11 -40 -10 -7 -13 -21 -20 -41 -20 -22 0 -32 5 -36 20 -4 16
-43 30 -43 16z"/>
<path d="M7320 12568 c0 -95 3 -197 6 -225 7 -53 7 -53 43 -53 l36 0 72 148
71 147 1 -110 c1 -60 4 -127 7 -147 6 -36 9 -38 42 -38 l35 0 -7 92 c-3 50 -6
151 -6 225 l0 133 -38 0 -38 0 -69 -140 c-38 -77 -73 -140 -77 -140 -4 0 -8
63 -8 140 l0 140 -35 0 -35 0 0 -172z"/>
<path d="M7787 12613 c-4 -71 -7 -172 -7 -225 l0 -98 38 0 38 0 77 143 77 142
0 -142 0 -143 35 0 35 0 0 58 c0 33 3 134 7 225 l6 167 -40 0 -39 0 -74 -140
c-41 -77 -77 -140 -80 -140 -3 0 -4 63 -2 140 l4 140 -34 0 -35 0 -6 -127z"/>
<path d="M6969 12710 c-99 -30 -148 -150 -116 -287 18 -80 51 -128 105 -154
93 -46 191 6 216 113 5 21 2 28 -14 32 -11 3 -28 8 -39 11 -14 4 -20 -1 -24
-24 -17 -85 -113 -97 -153 -20 -24 48 -30 168 -10 207 35 68 110 70 145 5 10
-20 14 -21 39 -11 15 7 31 15 36 19 16 14 -36 81 -78 100 -44 20 -66 22 -107
9z"/>
<path d="M8353 12705 c-66 -28 -113 -130 -113 -243 0 -70 18 -122 54 -158 53
-53 124 -62 194 -25 20 11 79 98 71 105 -2 2 -18 11 -36 20 l-32 16 -16 -34
c-15 -32 -50 -56 -81 -56 -9 0 -29 13 -45 29 -27 27 -29 35 -29 105 0 82 10
119 42 154 40 41 118 22 132 -34 5 -18 12 -24 22 -20 9 3 24 6 35 6 27 0 25
38 -4 81 -41 62 -123 85 -194 54z"/>
<path d="M8722 12448 c-18 -122 -31 -223 -29 -224 1 -1 18 -4 37 -6 l35 -3 12
90 c17 115 16 112 39 89 12 -12 28 -54 39 -102 12 -55 24 -86 36 -93 21 -11
69 -12 69 -1 0 28 -53 191 -70 214 -16 22 -17 29 -6 35 8 4 27 33 43 63 25 47
35 55 61 58 29 3 32 6 32 38 0 32 -2 34 -34 34 -45 0 -76 -27 -115 -100 -29
-55 -54 -80 -66 -68 -2 2 2 45 9 95 l12 91 -29 6 c-16 3 -33 6 -37 6 -3 0 -21
-100 -38 -222z"/>
<path d="M6487 12646 c-50 -18 -62 -30 -89 -84 -43 -90 -17 -261 50 -325 53
-50 110 -59 180 -27 33 15 47 29 62 62 29 64 26 85 -11 93 -33 7 -49 -4 -49
-36 0 -26 -44 -59 -77 -59 -62 0 -111 104 -100 213 8 91 80 126 139 66 28 -28
33 -29 59 -18 16 6 29 16 29 21 0 25 -39 70 -75 88 -48 23 -66 24 -118 6z"/>
<path d="M9170 12596 c0 -2 -21 -100 -46 -216 -25 -117 -44 -213 -42 -215 2
-2 19 -6 38 -9 35 -7 36 -6 133 114 55 67 101 119 103 117 3 -2 -8 -63 -24
-136 -16 -72 -26 -133 -23 -135 3 -2 19 -6 35 -7 l30 -4 42 200 c50 232 51
245 25 245 -11 0 -26 2 -33 5 -9 4 -50 -40 -113 -119 -55 -69 -103 -125 -106
-125 -4 -1 6 61 22 136 31 145 31 153 -18 153 -13 0 -23 -2 -23 -4z"/>
<path d="M9737 12584 c-10 -10 3 -56 21 -76 24 -29 86 -24 111 8 11 15 18 30
15 35 -8 14 -31 10 -38 -6 -7 -18 -47 -20 -64 -3 -7 7 -12 20 -12 30 0 18 -20
25 -33 12z"/>
<path d="M6011 12560 c-49 -12 -83 -40 -109 -91 -63 -120 23 -342 141 -364 77
-15 174 41 198 112 7 21 10 66 7 109 -11 165 -112 265 -237 234z m95 -88 c32
-26 51 -61 63 -121 28 -135 -69 -223 -154 -138 -38 38 -55 89 -55 165 0 46 4
58 29 83 34 34 84 39 117 11z"/>
<path d="M9581 12293 c-29 -109 -54 -206 -57 -215 -4 -13 4 -19 32 -27 21 -6
38 -9 39 -8 4 11 209 226 212 223 4 -3 -33 -149 -63 -247 -3 -11 6 -19 31 -26
33 -11 35 -10 42 15 3 15 29 113 58 219 l51 192 -22 5 c-12 3 -28 8 -36 11 -8
3 -55 -41 -122 -115 -59 -67 -110 -120 -112 -118 -1 2 13 64 33 137 38 141 37
150 -13 151 -19 0 -26 -20 -73 -197z"/>
<path d="M5496 12414 c-44 -13 -81 -25 -82 -27 -3 -3 12 -53 97 -330 30 -97
31 -99 57 -92 15 3 31 10 35 14 4 4 -3 43 -17 85 -17 54 -21 78 -13 81 117 32
148 57 154 122 7 65 -10 116 -48 148 -38 32 -78 32 -183 -1z m139 -74 c20 -22
23 -63 5 -84 -13 -17 -75 -39 -92 -34 -10 4 -38 78 -38 105 0 13 44 31 81 32
14 1 34 -8 44 -19z"/>
<path d="M7469 11983 c-24 -4 -26 -10 -53 -149 -16 -80 -32 -142 -36 -137 -5
4 -26 67 -48 138 l-40 130 -67 3 -68 3 6 -68 c4 -37 10 -139 13 -225 l7 -158
40 0 40 0 -7 163 c-3 89 -3 155 1 147 4 -8 26 -78 49 -155 l41 -140 41 -3 c36
-3 42 0 47 20 6 26 54 285 56 302 4 29 18 -88 18 -150 1 -39 4 -92 7 -118 7
-46 7 -46 46 -46 l40 0 -6 38 c-3 20 -8 109 -11 197 -8 217 -8 215 -53 214
-20 -1 -48 -4 -63 -6z"/>
<path d="M7730 11754 l0 -225 42 3 43 3 85 139 85 139 3 -142 3 -141 39 0 40
0 0 173 c0 94 3 196 6 225 l7 52 -46 0 -46 0 -83 -140 c-46 -77 -87 -140 -92
-140 -5 0 -7 61 -4 140 l5 140 -43 0 -44 0 0 -226z"/>
<path d="M8227 11918 c-14 -112 -9 -164 18 -197 34 -39 84 -55 156 -48 l59 5
-7 -89 -6 -89 42 0 c26 0 41 5 41 13 0 6 9 104 19 217 11 113 17 208 15 212
-3 5 -22 8 -43 8 l-39 0 -7 -95 c-8 -107 -13 -115 -85 -115 -58 0 -94 36 -86
88 3 20 7 60 8 87 l2 50 -40 3 -41 3 -6 -53z"/>
<path d="M6745 11926 c-41 -18 -92 -77 -104 -123 -35 -126 27 -281 126 -314
19 -6 61 -9 93 -7 141 10 215 133 176 289 -30 114 -95 169 -201 169 -33 -1
-74 -7 -90 -14z m167 -95 c46 -51 61 -141 34 -206 -36 -85 -149 -91 -202 -10
-24 37 -31 153 -11 192 35 67 129 80 179 24z"/>
<path d="M8707 11891 c-21 -139 -49 -402 -44 -408 7 -6 255 -42 298 -43 12 0
18 11 21 35 5 41 10 39 -130 55 l-103 12 7 57 c3 31 8 58 10 60 3 3 50 -1 106
-7 56 -7 102 -11 104 -10 1 2 4 19 6 38 l3 35 -65 7 c-36 4 -84 10 -106 13
l-41 6 5 47 c2 26 6 48 7 50 1 1 53 -3 114 -11 61 -7 114 -11 116 -8 3 2 5 19
5 38 0 25 -4 33 -17 33 -10 1 -79 9 -155 18 l-136 18 -5 -35z"/>
<path d="M6430 11881 c-39 -7 -38 -2 -19 -115 6 -32 8 -60 6 -62 -5 -5 -161
-33 -164 -30 -1 1 -8 40 -15 86 l-13 85 -40 -3 c-22 -2 -41 -5 -43 -6 -3 -4
67 -438 72 -443 2 -2 20 -1 40 2 41 8 41 7 22 122 l-13 81 78 12 c42 7 82 10
87 6 5 -3 15 -46 22 -96 l12 -91 41 6 c23 4 43 8 43 9 1 0 -13 96 -32 211 -18
116 -34 216 -34 223 0 6 -3 11 -7 11 -5 -1 -24 -4 -43 -8z"/>
<path d="M9237 11809 c-41 -22 -91 -91 -107 -149 -23 -81 -6 -185 38 -233 47
-53 160 -74 222 -42 26 13 80 73 80 88 0 7 -70 50 -74 46 -2 -2 -9 -15 -15
-27 -7 -13 -28 -30 -47 -38 -29 -12 -39 -12 -68 0 -19 8 -40 25 -47 38 -18 31
-15 125 5 173 27 63 53 85 103 85 48 0 78 -22 89 -65 5 -21 12 -25 44 -25 47
0 52 7 40 51 -27 97 -167 149 -263 98z"/>
<path d="M5795 11761 c-135 -33 -184 -147 -135 -315 16 -55 83 -123 134 -137
71 -19 173 8 218 58 68 75 61 244 -15 330 -54 61 -123 83 -202 64z m110 -93
c39 -31 65 -93 65 -160 0 -50 -4 -62 -29 -90 -26 -29 -36 -33 -79 -33 -36 0
-56 6 -72 20 -59 52 -80 186 -39 239 39 50 108 61 154 24z"/>
<path d="M9616 11530 c-31 -116 -54 -215 -51 -220 6 -10 64 -24 71 -17 3 3 16
43 28 89 34 124 63 108 87 -48 l12 -82 45 -12 c24 -6 46 -9 48 -8 8 9 -38 206
-54 228 -18 24 -18 24 17 60 20 20 46 49 59 64 18 23 28 27 51 23 24 -5 30 -2
35 16 10 39 7 45 -30 52 -53 9 -86 -9 -138 -76 -80 -102 -98 -95 -66 26 14 51
19 89 14 94 -5 5 -23 12 -40 15 l-31 7 -57 -211z"/>
<path d="M5440 11652 c-39 -19 -59 -61 -59 -129 -1 -23 -5 -53 -11 -67 -17
-47 -36 -30 -62 57 l-25 82 -34 -3 c-18 -1 -37 -6 -41 -10 -7 -7 113 -416 124
-427 2 -3 21 1 42 7 26 8 36 16 33 27 -3 9 -15 51 -28 93 -12 43 -20 80 -17
83 13 14 66 -27 117 -89 30 -36 55 -66 56 -66 1 0 22 7 48 16 l47 16 -66 74
c-37 40 -84 82 -104 92 -34 17 -36 20 -24 37 8 10 14 38 14 61 0 53 15 94 34
94 21 0 28 15 20 45 -7 30 -17 31 -64 7z"/>
<path d="M10021 11412 c-39 -115 -71 -211 -71 -213 0 -3 18 -11 40 -18 l41
-12 102 88 c126 109 136 117 142 111 3 -2 -13 -58 -35 -123 -22 -66 -40 -122
-40 -126 0 -12 61 -32 69 -23 10 11 141 390 141 408 0 7 -17 18 -37 24 -36 11
-38 10 -91 -36 -155 -133 -193 -164 -197 -160 -2 2 13 53 34 113 58 166 56
151 20 164 -18 6 -35 11 -39 11 -4 0 -39 -94 -79 -208z"/>
<path d="M10700 11499 c0 -43 16 -69 55 -85 39 -16 89 -4 105 26 12 23 -13 35
-40 18 -28 -18 -74 1 -79 32 -3 24 -17 39 -33 40 -5 0 -8 -14 -8 -31z"/>
<path d="M4901 11468 c-89 -16 -151 -82 -151 -162 0 -35 1 -35 33 -30 52 9 57
12 57 34 0 51 59 97 109 85 28 -7 81 -52 81 -69 0 -6 -27 -21 -60 -34 -58 -23
-59 -24 -48 -50 18 -43 22 -44 72 -22 69 29 76 27 76 -23 0 -50 -18 -80 -60
-97 -35 -15 -82 0 -105 32 -13 20 -14 20 -50 -8 l-37 -28 40 -37 c46 -43 91
-55 149 -40 100 27 149 90 147 191 -1 75 -26 138 -74 194 -53 60 -103 78 -179
64z"/>
<path d="M10577 11443 c-22 -36 -176 -397 -172 -403 3 -5 21 -14 40 -20 34
-11 36 -10 167 84 73 52 134 93 135 92 2 -1 -22 -58 -52 -125 -30 -68 -55
-126 -55 -130 0 -4 15 -15 34 -24 l34 -16 92 206 c50 113 90 206 88 208 -2 1
-18 10 -37 20 -32 16 -35 16 -60 -2 -150 -111 -242 -175 -246 -172 -2 3 21 59
51 127 30 67 54 126 54 131 0 5 -8 11 -17 14 -10 2 -25 8 -34 12 -10 3 -19 3
-22 -2z"/>
<path d="M8147 11219 c-10 -91 -30 -419 -26 -423 2 -2 22 -6 44 -8 29 -2 40 1
42 12 1 8 7 102 14 208 l12 192 77 -6 77 -7 5 32 c3 18 2 34 -1 36 -4 2 -59 6
-122 10 l-116 8 -6 -54z"/>
<path d="M6650 11210 c-63 -10 -116 -19 -118 -19 -2 -1 -2 -16 0 -33 l3 -33
52 3 52 4 6 -44 c4 -23 16 -113 28 -198 l22 -155 30 -3 c61 -5 61 -2 32 205
-15 103 -27 193 -27 200 0 7 21 15 50 19 51 7 54 11 44 52 -8 26 -15 27 -174
2z"/>
<path d="M8616 11221 c-9 -14 -71 -459 -65 -465 3 -3 38 -10 78 -17 114 -17
182 6 217 73 26 49 12 123 -30 157 -13 11 -11 16 15 39 77 70 47 167 -61 200
-57 18 -147 25 -154 13z m123 -72 c42 -15 56 -42 41 -79 -19 -47 -118 -66
-106 -21 2 9 7 37 11 64 7 51 8 52 54 36z m0 -215 c63 -53 26 -134 -61 -134
-40 0 -40 0 -35 33 3 17 9 53 13 80 5 41 9 47 29 47 13 0 37 -12 54 -26z"/>
<path d="M6367 11160 c-55 -10 -100 -20 -102 -22 -2 -2 81 -472 84 -474 1 0
54 9 119 20 l117 21 0 30 c0 27 -3 30 -30 29 -16 0 -53 -4 -81 -8 -58 -9 -56
-11 -70 92 -6 48 -5 52 14 52 12 0 43 5 70 10 47 11 48 12 44 42 -5 30 -5 30
-56 24 -28 -3 -61 -9 -72 -12 -19 -5 -22 0 -28 43 -4 26 -9 56 -12 65 -4 14 8
18 71 29 76 12 80 15 69 57 -7 26 -9 26 -137 2z"/>
<path d="M7387 11093 c-4 -32 -9 -113 -13 -181 l-7 -123 39 3 39 3 5 92 c3 50
8 94 11 97 3 3 21 -36 41 -87 35 -91 35 -92 69 -92 l34 0 36 105 37 105 6 -80
c4 -44 8 -91 9 -105 2 -22 7 -25 46 -28 l44 -3 -6 43 c-3 24 -11 103 -18 176
l-13 133 -50 -3 -51 -3 -35 -102 c-19 -57 -37 -103 -40 -103 -3 0 -23 47 -44
105 l-39 105 -47 0 -47 0 -6 -57z"/>
<path d="M7197 11108 c-8 -18 -26 -66 -42 -105 -15 -40 -31 -73 -35 -73 -4 0
-10 43 -12 95 -3 53 -8 98 -11 101 -3 3 -22 2 -42 -2 l-37 -7 6 -66 c3 -36 8
-114 12 -173 l7 -108 42 0 43 0 43 100 c27 61 46 94 51 87 4 -7 8 -43 8 -82 0
-89 7 -100 55 -91 l37 7 -5 47 c-4 26 -9 104 -13 175 l-7 127 -43 0 c-40 0
-45 -3 -57 -32z"/>
<path d="M6085 11104 c-60 -13 -120 -26 -132 -29 -16 -4 -23 -13 -23 -28 0
-40 11 -47 59 -36 24 5 46 7 50 4 3 -4 24 -93 46 -198 l41 -192 39 2 c21 2 40
5 43 8 3 3 -14 94 -37 202 -30 144 -38 198 -30 204 7 4 30 10 51 13 35 6 39 9
34 29 -3 12 -6 28 -6 35 0 15 -3 15 -135 -14z"/>
<path d="M9284 11107 c-16 -46 -110 -453 -105 -459 3 -3 22 -9 42 -13 l36 -7
48 194 c26 106 49 196 51 199 5 9 124 -21 124 -31 0 -4 -20 -91 -45 -191 -25
-101 -45 -189 -45 -195 0 -6 18 -16 40 -22 l40 -10 9 37 c70 263 108 433 98
436 -7 3 -74 20 -150 39 -97 24 -140 31 -143 23z"/>
<path d="M5810 11035 l-35 -12 -27 -162 c-15 -90 -28 -165 -30 -167 -3 -2 -22
61 -44 139 l-40 142 -34 -3 c-19 -1 -38 -6 -41 -10 -4 -4 23 -110 60 -235 l66
-229 30 6 c16 4 35 12 41 19 6 6 22 77 34 157 13 80 26 151 30 158 3 7 23 -51
45 -128 21 -77 41 -143 45 -145 4 -2 22 1 42 7 l35 10 -65 227 c-35 124 -67
229 -71 232 -3 4 -22 1 -41 -6z"/>
<path d="M9645 10873 c-50 -176 -79 -235 -123 -248 -29 -8 -33 -13 -30 -40 3
-26 7 -30 38 -33 80 -6 130 65 186 266 32 112 28 109 97 83 l25 -10 -54 -188
c-30 -103 -54 -193 -54 -199 0 -10 70 -37 77 -30 7 7 134 459 130 462 -4 4
-241 74 -250 74 -2 0 -21 -62 -42 -137z"/>
<path d="M5330 10878 c-63 -43 -75 -70 -75 -166 0 -74 4 -96 29 -149 48 -105
136 -168 208 -149 77 20 118 77 118 166 l0 50 -37 0 -38 0 0 -46 c0 -38 -5
-50 -29 -71 -36 -31 -69 -25 -113 21 -31 33 -73 142 -73 190 0 32 36 85 64 92
26 6 64 -10 83 -35 10 -14 15 -13 42 13 l31 30 -23 24 c-52 56 -130 68 -187
30z"/>
<path d="M7848 10888 c-32 -25 -27 -75 8 -89 54 -20 99 45 58 85 -19 19 -44
20 -66 4z"/>
<path d="M10031 10878 c-55 -148 -151 -417 -151 -425 0 -6 42 -25 93 -44 50
-18 121 -46 156 -61 l65 -29 68 68 68 67 1 -54 c0 -30 4 -75 7 -99 7 -44 7
-44 81 -75 l74 -31 48 50 47 50 47 -23 c52 -25 49 -12 29 -132 -5 -33 -4 -37
31 -53 21 -10 38 -17 40 -15 4 6 95 463 95 479 0 8 -17 23 -37 33 l-36 17 -27
-28 c-15 -15 -60 -64 -100 -108 -118 -128 -202 -216 -205 -213 -2 2 -6 59 -10
128 l-6 125 95 80 c53 44 96 82 96 86 0 3 -17 13 -38 21 l-38 15 -64 -58 -65
-58 -5 87 -5 87 -39 18 c-21 10 -40 16 -42 14 -3 -2 -1 -62 3 -132 l8 -127
-91 -79 c-51 -43 -95 -79 -98 -79 -4 0 -4 10 -1 23 5 20 0 25 -47 41 -29 11
-63 23 -76 27 l-22 9 25 67 c14 37 27 68 28 69 2 2 32 -8 69 -21 60 -22 66
-22 71 -7 3 9 8 24 11 33 5 12 -8 20 -59 38 -36 13 -65 26 -65 30 0 16 33 101
41 106 4 3 37 -4 73 -17 36 -12 68 -20 71 -16 3 3 7 18 8 33 2 25 -3 29 -103
66 -58 21 -106 39 -108 39 -1 0 -6 -10 -11 -22z m688 -489 c-6 -30 -14 -58
-19 -62 -8 -9 -60 12 -60 25 0 11 82 100 87 95 2 -2 -2 -28 -8 -58z"/>
<path d="M8397 10842 c-10 -10 -17 -25 -17 -34 0 -22 33 -48 61 -48 33 0 49
17 49 52 0 45 -61 65 -93 30z"/>
<path d="M8912 10774 c-50 -34 -2 -111 53 -86 24 11 30 27 25 62 -4 33 -47 46
-78 24z"/>
<path d="M4979 10738 c-42 -22 -63 -38 -61 -48 11 -49 177 -420 188 -420 23 0
64 23 64 35 0 7 -14 45 -32 85 -31 70 -32 74 -13 84 88 51 127 125 106 198
-31 103 -128 128 -252 66z m150 -64 c32 -40 28 -87 -10 -118 -17 -14 -34 -24
-39 -21 -5 3 -21 37 -36 76 -31 79 -27 89 33 89 22 0 38 -8 52 -26z"/>
<path d="M4733 10630 c-57 -27 -103 -53 -103 -58 0 -11 189 -415 198 -423 6
-6 206 82 220 96 3 2 -1 18 -8 34 l-12 30 -75 -34 -74 -35 -30 65 c-16 36 -29
66 -29 68 0 2 27 16 60 32 33 16 60 32 60 36 0 5 -5 19 -11 33 l-12 25 -46
-23 c-84 -43 -85 -42 -109 17 -12 29 -22 55 -22 58 0 3 28 18 63 34 34 16 63
30 65 31 4 2 -27 64 -31 64 -1 -1 -48 -23 -104 -50z"/>
<path d="M4430 10469 c-41 -17 -120 -70 -120 -82 0 -18 214 -399 226 -404 16
-6 102 39 143 73 93 78 78 210 -29 243 -56 17 -52 13 -40 46 14 37 -3 88 -37
115 -28 22 -99 26 -143 9z m76 -67 c19 -13 34 -50 27 -69 -7 -22 -43 -63 -55
-63 -7 0 -68 98 -68 111 0 19 75 36 96 21z m125 -191 c34 -35 36 -59 8 -95
-43 -55 -54 -53 -93 17 -20 35 -36 69 -36 75 0 11 44 30 73 31 10 1 32 -12 48
-28z"/>
<path d="M10997 10423 c-151 -239 -227 -364 -227 -372 0 -5 15 -18 34 -29 l34
-20 52 84 c28 46 55 86 60 89 10 6 110 -54 110 -67 0 -4 -22 -44 -50 -88 -27
-44 -50 -83 -50 -87 0 -5 16 -18 34 -30 l34 -22 122 195 c68 108 123 202 124
210 0 8 -13 24 -31 35 l-32 20 -25 -40 c-15 -23 -37 -59 -51 -81 -14 -22 -29
-40 -33 -40 -4 0 -31 15 -60 33 l-52 32 51 83 c28 46 50 84 48 86 -2 1 -18 12
-36 25 l-32 22 -24 -38z"/>
<path d="M4168 10302 c-16 -9 -28 -23 -28 -32 0 -8 11 -84 24 -167 12 -84 20
-153 17 -153 -3 0 -41 54 -85 120 -43 66 -83 120 -88 120 -14 0 -58 -31 -58
-42 0 -5 59 -97 132 -203 l131 -194 30 17 c16 9 31 22 33 27 3 6 -6 81 -19
168 -13 86 -21 157 -18 157 3 0 41 -54 85 -120 43 -66 82 -120 85 -120 3 0 19
11 35 23 l29 24 -133 196 c-74 109 -136 197 -139 197 -3 0 -18 -8 -33 -18z"/>
<path d="M11313 10140 c-89 -51 -172 -182 -173 -271 0 -118 126 -188 236 -131
52 26 125 107 158 174 87 174 -57 322 -221 228z m145 -56 c45 -31 18 -122 -65
-214 -46 -51 -88 -80 -118 -80 -23 0 -55 37 -55 63 0 59 98 199 162 230 41 21
48 21 76 1z"/>
<path d="M3816 10051 c-32 -33 -32 -33 36 -112 26 -31 48 -61 48 -67 0 -11
-84 -82 -97 -81 -4 0 -33 31 -63 69 -30 38 -58 69 -62 69 -4 1 -21 -11 -38
-26 l-30 -28 151 -180 c84 -99 155 -181 158 -183 4 -1 21 10 39 25 l32 28 -70
82 -70 81 51 43 51 43 32 -35 c17 -19 49 -55 71 -81 l40 -47 33 28 34 29 -157
186 c-86 102 -158 186 -159 186 -1 0 -15 -13 -30 -29z"/>
<path d="M11594 9843 c-60 -65 -131 -142 -158 -171 l-49 -53 39 -41 c87 -91
172 -120 243 -84 50 26 79 93 61 140 -9 25 -8 26 31 26 33 0 47 6 75 34 39 39
44 77 18 132 -18 37 -118 134 -138 134 -7 0 -62 -53 -122 -117z m179 -15 c51
-69 -35 -128 -108 -74 -19 14 -19 16 25 60 24 26 49 45 54 43 5 -2 19 -15 29
-29z m-127 -165 c24 -56 -9 -103 -71 -103 -29 0 -75 27 -75 43 0 6 23 35 52
64 57 58 69 57 94 -4z"/>
<path d="M7510 9824 c-153 -28 -338 -102 -385 -154 -11 -12 -32 -28 -47 -36
-32 -16 -94 -19 -103 -4 -12 20 -201 108 -295 138 -137 43 -275 55 -605 50
-278 -3 -281 -3 -415 -36 -74 -19 -169 -47 -210 -62 -121 -46 -283 -126 -305
-150 -11 -12 -36 -30 -55 -40 -33 -17 -191 -175 -236 -236 -27 -36 -78 -138
-116 -229 -85 -205 -102 -572 -37 -806 35 -125 136 -304 218 -383 61 -60 185
-131 266 -152 70 -19 315 -19 315 -1 0 8 -19 20 -42 27 -77 23 -133 57 -203
127 -79 77 -102 112 -145 219 -67 168 -86 379 -55 610 20 153 54 255 117 352
18 28 44 70 58 94 29 49 218 248 236 248 7 0 26 11 43 25 53 45 299 155 391
176 97 21 378 27 427 8 15 -6 66 -17 113 -25 47 -8 121 -26 165 -41 66 -21 89
-34 133 -76 44 -43 52 -57 52 -87 0 -26 -7 -43 -26 -61 -38 -35 -107 -178
-148 -308 l-36 -114 0 -521 c1 -287 7 -667 15 -846 13 -312 14 -327 40 -388
38 -90 71 -135 182 -243 70 -69 115 -103 157 -122 32 -15 60 -27 62 -27 2 0 4
17 4 39 0 22 -14 68 -34 112 -66 143 -66 142 -65 705 0 280 6 680 13 889 12
325 17 391 34 457 22 82 47 138 61 138 40 0 85 -105 107 -245 18 -120 21
-2004 2 -2069 -16 -56 -98 -141 -157 -161 -31 -10 -84 -15 -175 -15 -110 0
-143 4 -211 25 -72 22 -88 31 -133 79 -29 30 -52 60 -52 65 0 6 -7 11 -15 11
-12 0 -15 -15 -15 -75 0 -60 5 -85 24 -123 14 -27 31 -54 39 -60 8 -7 20 -25
26 -40 11 -27 33 -42 141 -100 156 -84 441 -61 683 55 122 58 195 134 243 251
l24 57 0 1024 c0 1124 3 1064 -61 1216 -46 108 -54 122 -136 238 l-31 45 26
11 c31 13 58 6 142 -32 109 -51 211 -178 249 -312 38 -132 41 -181 56 -1034
14 -817 15 -847 36 -910 24 -72 69 -167 102 -215 12 -17 66 -77 122 -134 85
-88 113 -110 187 -148 69 -35 98 -44 138 -44 l51 0 -3 -122 c-3 -117 -4 -123
-23 -120 -11 2 -31 10 -45 17 -86 48 -94 50 -228 53 -120 3 -142 1 -225 -23
-50 -14 -170 -64 -267 -111 -248 -122 -256 -124 -420 -124 -114 0 -154 4 -231
24 -52 14 -102 28 -111 31 -14 6 -18 2 -18 -19 0 -34 28 -74 115 -164 76 -79
118 -100 247 -127 82 -18 285 -20 360 -4 99 20 193 51 283 93 l90 41 135 -1
c74 0 180 -5 235 -10 l100 -9 0 -37 c-1 -21 -2 -157 -3 -302 l-2 -264 -72 35
c-40 20 -80 41 -88 48 -36 30 -223 97 -391 140 -171 44 -281 55 -536 55 -327
0 -417 -17 -643 -122 -85 -40 -118 -62 -173 -116 -39 -38 -81 -91 -98 -124
-16 -31 -33 -59 -39 -63 -5 -3 -21 -44 -36 -91 -24 -79 -26 -97 -22 -238 l3
-151 48 -99 c59 -122 109 -185 218 -276 97 -80 180 -124 339 -176 59 -20 117
-28 275 -39 110 -8 214 -20 230 -26 48 -17 261 -39 375 -39 111 0 322 22 389
40 22 6 149 17 283 25 179 10 261 19 313 34 120 34 248 80 264 95 9 7 30 17
48 21 17 3 37 13 44 21 39 48 110 56 160 19 110 -80 406 -185 609 -215 237
-35 444 -45 613 -31 216 18 520 86 567 126 8 7 51 32 95 54 106 56 145 80 189
119 20 17 42 32 47 32 17 0 169 151 186 185 9 16 28 41 43 55 58 54 139 250
165 397 19 110 19 336 1 418 -19 82 -61 179 -102 234 -18 25 -43 62 -54 82
-20 39 -168 179 -234 224 -203 137 -492 202 -725 164 -78 -12 -220 -56 -241
-74 -8 -7 -35 -23 -60 -35 -43 -22 -131 -84 -158 -112 -71 -75 -148 -208 -154
-268 -3 -22 1 -25 31 -28 25 -3 40 3 62 24 52 50 182 121 279 152 154 51 294
64 429 41 74 -13 233 -88 257 -123 52 -73 66 -96 90 -141 15 -27 40 -97 55
-155 48 -176 39 -342 -31 -595 -44 -157 -88 -240 -177 -335 -52 -55 -80 -75
-160 -113 -165 -78 -177 -80 -525 -85 l-308 -3 -147 30 c-205 41 -347 95 -465
178 -44 30 -48 55 -19 111 26 52 58 172 70 271 8 58 11 693 11 2005 l0 1921
25 110 c34 149 69 253 123 360 74 149 121 210 199 260 71 46 110 55 250 55
214 0 340 -41 465 -152 64 -57 82 -82 129 -172 9 -17 28 -81 43 -142 24 -103
26 -126 26 -345 0 -217 -2 -241 -25 -326 -24 -91 -78 -211 -119 -267 -11 -15
-57 -67 -101 -113 -71 -75 -93 -91 -189 -140 -60 -30 -143 -63 -185 -74 -61
-16 -288 -49 -338 -49 -31 0 -8 -29 38 -49 83 -36 198 -51 391 -51 190 0 232
6 376 51 109 34 179 68 207 99 11 12 36 30 55 40 63 32 166 153 226 265 14 28
33 57 40 66 21 24 83 213 100 304 9 50 14 147 14 260 0 171 -2 187 -34 315
-33 136 -89 262 -156 355 -35 49 -214 222 -261 252 -94 61 -253 125 -354 143
-104 18 -490 9 -570 -14 -33 -9 -134 -51 -224 -94 -159 -75 -165 -79 -260
-172 -53 -52 -104 -108 -114 -125 -9 -16 -26 -45 -38 -62 -34 -53 -89 -191
-115 -288 -51 -190 -54 -236 -54 -1003 0 -811 -3 -858 -67 -994 -28 -60 -52
-93 -107 -146 -61 -59 -148 -114 -160 -101 -15 16 -29 330 -41 919 -23 1115
-34 1304 -81 1430 -58 158 -96 227 -164 306 -19 22 -43 55 -52 73 -10 17 -32
39 -49 49 -18 9 -48 31 -68 48 -20 17 -56 41 -81 54 -25 12 -52 28 -60 35 -29
25 -172 75 -270 95 -116 24 -322 26 -440 4z m344 -279 c129 -37 305 -132 353
-190 53 -65 70 -90 78 -115 4 -14 20 -56 37 -93 29 -67 29 -71 43 -375 8 -169
19 -530 25 -802 10 -508 26 -975 36 -1112 3 -49 2 -78 -5 -78 -24 0 -75 59
-110 129 -37 73 -39 83 -49 226 -6 83 -23 503 -36 935 -14 432 -31 812 -37
844 -6 33 -30 98 -54 145 -36 71 -61 103 -142 183 -84 82 -113 103 -200 147
-122 60 -240 97 -366 112 -118 14 -128 17 -102 31 51 29 107 37 271 37 155 1
180 -1 258 -24z m1302 -3292 c4 -203 8 -593 8 -868 1 -450 -1 -506 -17 -564
-10 -36 -19 -66 -21 -68 -7 -7 -82 42 -133 86 -76 67 -114 96 -151 115 l-32
17 2 716 3 716 32 11 c52 17 171 96 232 153 31 29 59 53 62 53 4 0 10 -165 15
-367z m-1431 -948 c267 -39 516 -141 661 -269 l44 -39 0 -106 c0 -58 -7 -144
-14 -191 -17 -104 -81 -325 -104 -361 -9 -14 -27 -42 -40 -61 -31 -48 -75 -58
-259 -58 -199 0 -277 21 -446 124 -51 31 -93 73 -107 107 -7 16 -16 29 -20 29
-14 0 -60 118 -76 195 -20 96 -15 134 26 225 44 93 99 143 223 200 158 73 117
98 -161 99 -172 1 -173 1 -230 -28 -59 -30 -139 -107 -184 -176 -14 -22 -41
-83 -59 -135 -31 -89 -34 -105 -37 -250 l-3 -155 41 -85 c23 -47 51 -93 63
-102 12 -9 18 -20 14 -24 -11 -12 -145 56 -194 98 -23 20 -51 39 -62 43 -10 3
-24 19 -31 34 -6 16 -23 40 -37 53 -62 58 -103 181 -103 313 0 97 22 170 71
236 43 57 154 163 201 192 53 31 163 71 253 92 85 19 441 19 570 0z m1105
-681 c25 -25 59 -53 75 -61 42 -22 85 -64 85 -84 0 -18 -67 -81 -126 -118 -22
-13 -70 -34 -107 -47 -55 -19 -73 -21 -92 -12 -14 6 -25 15 -25 19 0 4 13 34
28 66 15 33 43 110 62 171 19 62 40 112 45 112 6 0 31 -21 55 -46z"/>
<path d="M3534 9799 l-31 -31 58 -101 c32 -55 57 -102 55 -104 -1 -2 -51 20
-111 48 l-107 52 -34 -35 -35 -34 166 -69 c95 -39 170 -76 176 -86 14 -28 11
-86 -7 -104 -15 -14 -15 -18 0 -40 20 -31 27 -31 53 -2 69 75 59 125 -71 385
-42 83 -77 152 -79 152 -1 0 -16 -14 -33 -31z"/>
<path d="M11985 9589 c-33 -16 -132 -63 -219 -105 l-160 -75 32 -32 32 -31 63
31 64 31 35 -42 35 -41 -39 -58 -40 -58 27 -35 c15 -20 31 -32 35 -27 18 19
270 403 270 410 -1 15 -49 63 -62 62 -7 0 -40 -13 -73 -30z m-40 -154 c-21
-30 -39 -55 -40 -55 -1 0 -11 13 -23 30 l-22 30 57 29 c32 16 60 27 62 25 2
-2 -13 -28 -34 -59z"/>
<path d="M6235 9231 c-120 -36 -265 -125 -280 -172 -3 -10 -19 -34 -35 -55
-17 -20 -42 -73 -56 -118 l-26 -81 -13 -1865 c-9 -1161 -18 -1924 -25 -2020
-11 -155 -29 -238 -55 -260 -8 -6 -19 -28 -26 -48 -6 -20 -17 -42 -24 -47 -7
-6 -24 -33 -39 -60 -61 -114 -104 -152 -244 -216 -117 -54 -144 -59 -323 -59
-136 0 -176 3 -220 19 -71 24 -176 77 -214 108 -16 13 -45 34 -64 46 -32 20
-83 79 -160 182 -50 67 -97 165 -131 272 -31 101 -31 104 -28 280 l3 178 38
75 c79 159 148 224 304 286 120 48 157 54 356 54 185 0 190 -1 285 -32 56 -19
123 -50 161 -75 89 -60 131 -56 131 14 0 44 -46 113 -121 181 -72 65 -105 87
-209 138 -160 77 -193 84 -401 84 -170 0 -195 -2 -273 -25 -170 -49 -280 -117
-421 -260 -117 -119 -129 -134 -183 -240 -50 -98 -71 -174 -79 -287 -7 -109
14 -443 33 -520 15 -62 104 -233 158 -308 18 -25 52 -59 77 -77 24 -18 58 -43
74 -56 17 -13 55 -37 85 -52 30 -15 62 -33 70 -40 8 -7 31 -18 51 -24 20 -7
45 -21 55 -32 26 -29 76 -53 160 -78 66 -19 95 -21 373 -21 269 0 312 2 399
21 53 12 109 27 124 35 15 8 45 14 68 14 27 0 72 15 136 45 109 51 163 90 195
143 13 20 31 43 40 50 21 15 73 109 90 160 6 21 18 47 25 59 8 13 25 69 39
125 50 203 53 317 65 1948 5 833 10 1682 10 1886 l0 371 25 34 c13 19 33 51
45 71 11 21 35 45 53 54 17 9 42 26 55 37 27 25 73 54 163 101 62 33 86 56 72
70 -4 3 -74 6 -157 5 -114 0 -166 -5 -211 -18z"/>
</g>
</svg>
